<svg width="164" height="40" viewBox="0 0 164 40" fill="none" xmlns="http://www.w3.org/2000/svg">
<g clip-path="url(#clip0_253_358)">
<path d="M12.1429 39.898L12.0816 19.9592L12.0408 0H15.7143V40L12.1429 39.898Z" fill="#DC7C7F"/>
<path d="M21.9796 29.7142C21.9388 35.204 21.9184 30.7958 21.9184 19.9182C21.9184 9.02029 21.9388 4.53049 21.9796 9.91825C22 15.306 22 24.204 21.9796 29.7142Z" fill="#DC7C7F"/>
<path d="M33.7551 39.9591C33.3061 39.9999 32.4898 39.9999 31.9184 39.9591C31.3673 39.9183 31.7347 39.8774 32.7347 39.8774C33.7551 39.8774 34.2041 39.9183 33.7551 39.9591Z" fill="#DC7C7F"/>
<path d="M36.7347 39.7959V19.898V0H40.4082V39.7959H36.7347Z" fill="#ED3D3F"/>
<path d="M43.0612 39.898V19.9592V0H46.7347V39.7959L43.0612 39.898Z" fill="#ED3D3F"/>
<path d="M24.6939 40V20V0H28.1633V40H24.6939Z" fill="#E75255"/>
<path d="M30.9592 29.7959C30.9388 35.3469 30.9184 30.8979 30.9184 19.8979C30.9184 8.89794 30.9388 4.34692 30.9592 9.7959C31 15.2449 31 24.2449 30.9592 29.7959Z" fill="#E75255"/>
<path d="M39.6939 39.9387C39.2449 39.9795 38.4286 39.9795 37.8571 39.9387C37.2857 39.8979 37.6531 39.8774 38.6735 39.8774C39.6939 39.8774 40.1429 39.8979 39.6939 39.9387Z" fill="#E75255"/>
<path d="M45.7143 39.9388C45.2041 39.9796 44.4286 39.9796 43.9796 39.9388C43.5306 39.898 43.9388 39.8572 44.898 39.8572C45.8571 39.8572 46.2245 39.898 45.7143 39.9388Z" fill="#E75255"/>
<path d="M0 40V20V0H3.46939V40H0Z" fill="#D0A5AA"/>
<path d="M28.3061 29.7959C28.2857 35.3469 28.2653 30.8979 28.2653 19.8979C28.2653 8.89794 28.2857 4.34692 28.3061 9.7959C28.3469 15.2449 28.3469 24.2449 28.3061 29.7959Z" fill="#D0A5AA"/>
<path d="M6.12245 40L6.16326 20.0612L6.22449 0.102051L6.32653 39.7959L9.69388 39.9184L6.12245 40Z" fill="#D0A5AA"/>
<path d="M30.9184 39.898L30.9796 19.9592L31.0204 0H34.4898V39.7959L30.9184 39.898Z" fill="#ED3D3F"/>
<path d="M18.3673 39.898V19.9592V0H21.9388V39.898H18.3673Z" fill="#E2676A"/>
<path d="M6.32653 39.7959L6.28572 19.898L6.22449 0H9.79592V39.898L6.32653 39.7959Z" fill="#D69094"/>
<path d="M24.6531 29.6939C24.6327 35.1837 24.5918 30.7755 24.5918 19.898C24.5918 9.00002 24.6327 4.51023 24.6531 9.89798C24.6735 15.2857 24.6735 24.1837 24.6531 29.6939Z" fill="#D69094"/>
<path d="M18.4694 39.9185L20.2041 39.796C21.1633 39.7348 21.9592 39.6532 22 39.6328C22.0204 39.6124 22 39.6736 21.9388 39.796C21.8776 39.9185 21.1225 39.9797 18.4694 39.9185Z" fill="#D69094"/>
<path fill-rule="evenodd" clip-rule="evenodd" d="M58.2041 2.10194C58.5714 1.91828 59.1633 1.69379 59.4898 1.61215C59.8163 1.53052 60.5918 1.4693 61.1837 1.44889C61.7551 1.42848 62.6735 1.53052 63.2041 1.67338C63.8367 1.83664 64.4286 2.18358 64.898 2.65296C65.2857 3.04072 65.7347 3.7346 65.8571 4.18357C66 4.63255 66.1224 5.67337 66.1224 7.95908H62.449V6.42847C62.449 5.16317 62.3673 4.81623 62.0408 4.4897C61.8163 4.26521 61.449 4.08153 61.2245 4.08153C61 4.08153 60.6327 4.26521 60.4082 4.4897C60.0204 4.87745 60 5.16317 60 10.2652C60 14.6938 60.0408 15.6938 60.3061 16.0815C60.5102 16.3809 60.8163 16.5305 61.2245 16.5305C61.6327 16.5305 61.9388 16.3809 62.1429 16.0815C62.3469 15.7754 62.449 15.1223 62.449 12.653H66.1224V14.1428C66.1224 14.9387 66 15.9795 65.8571 16.4285C65.7347 16.8775 65.2857 17.5713 64.898 17.9795C64.4898 18.4081 63.8367 18.8366 63.3673 18.9591C62.9184 19.0815 61.9592 19.1836 61.2245 19.1836C60.4898 19.1836 59.4898 19.0407 58.9796 18.8775C58.4694 18.6938 57.7959 18.306 57.4898 17.9999C57.1837 17.6938 56.7347 16.9591 56.5306 16.3877C56.1633 15.4285 56.1224 14.7754 56.1224 10.4693C56.1224 6.81623 56.1837 5.36725 56.4082 4.59174C56.5714 4.04072 56.898 3.32643 57.1224 3.02031C57.3673 2.69378 57.8571 2.28562 58.2041 2.10194ZM142.204 2.83664C142.673 2.30602 143.306 1.89787 143.878 1.7142C144.408 1.55093 145.367 1.44889 146.122 1.48971C146.959 1.53052 147.714 1.69379 148.163 1.95909C148.653 2.22439 149.041 2.69378 149.429 3.46929C149.714 4.08153 150.02 4.97949 150.082 5.46929C150.204 6.28562 150.184 6.32643 149.633 6.40806C149.327 6.46929 148.592 6.55092 146.939 6.7346L146.816 5.97949C146.755 5.55092 146.633 4.9999 146.51 4.755C146.367 4.40806 146.184 4.30602 145.776 4.34684C145.429 4.36725 145.102 4.57133 144.918 4.89786C144.735 5.22439 144.673 5.67337 144.755 6.12235C144.837 6.55092 145.184 7.16317 145.673 7.65296C146.102 8.10194 147.122 9.10194 147.959 9.89786C148.898 10.7958 149.633 11.7142 149.918 12.3468C150.265 13.0815 150.408 13.7346 150.408 14.6938C150.408 15.6734 150.286 16.2652 149.959 16.9387C149.673 17.4693 149.122 18.1019 148.612 18.4693C147.878 18.9591 147.469 19.1019 146.367 19.1632C145.612 19.1836 144.612 19.1224 144.122 18.9999C143.653 18.8775 142.98 18.5305 142.612 18.2244C142.265 17.8979 141.816 17.2856 141.612 16.8366C141.408 16.3877 141.184 15.5101 140.98 13.7754L142.061 13.6121C142.673 13.5101 143.408 13.3877 143.735 13.306C144.245 13.1836 144.286 13.204 144.286 13.7754C144.286 14.1019 144.388 14.7346 144.49 15.1632C144.612 15.5713 144.878 16.0203 145.102 16.1224C145.327 16.2244 145.694 16.3264 145.918 16.3264C146.143 16.3264 146.429 16.1428 146.531 15.9183C146.633 15.6938 146.735 15.204 146.735 14.857C146.735 14.4693 146.49 13.7958 146.163 13.2652C145.837 12.755 144.918 11.7958 144.122 11.1223C143.306 10.4489 142.388 9.53051 142.061 9.08153C141.735 8.63255 141.367 7.89786 141.245 7.44888C141.122 6.9999 141.02 6.30602 141.02 5.91827C141.02 5.53051 141.122 4.85704 141.224 4.44888C141.347 4.02031 141.776 3.30602 142.204 2.83664ZM68.9796 10.306V18.9795H72.8571V11.4285H75.5102V18.9795H79.3878V1.63256H75.5102V8.77541H72.8571V1.63256H68.9796V10.306ZM83.3878 10.4081C84.2245 5.85704 84.9592 2.02032 85 1.89787C85.0612 1.7142 85.6939 1.63256 89.3878 1.63256L89.5918 2.71419C89.6604 3.03458 89.9022 4.34282 90.231 6.12104L90.2314 6.1226C90.489 7.51582 90.7998 9.19737 91.1224 10.9183C91.2545 11.6262 91.3833 12.317 91.5059 12.9755C92.0661 15.9807 92.5008 18.3129 92.551 18.5305C92.6531 18.9795 92.6327 18.9795 89.0816 18.8775L88.4694 15.306H86.0204L85.4082 18.8775L83.6122 18.9387C82.6327 18.9591 81.8367 18.9183 81.8367 18.8366C81.8367 18.7346 82.5306 14.9591 83.3878 10.4081ZM95.102 10.306V18.9795H98.9796L98.8776 1.7346L95.1225 1.61215L95.102 10.306ZM102.02 18.9999V10.3264V1.65297H104.776L106.306 5.30602C107.163 7.32643 107.959 9.02031 108.102 9.08153C108.306 9.16317 108.347 8.36725 108.347 1.65297H111.408V18.9999L108.857 18.9795L107.327 15.0815C106.49 12.9387 105.694 11.0815 105.531 10.9591C105.327 10.7754 105.286 11.4897 105.286 18.9999H102.02ZM120.837 10.2856L120.796 18.9999H124.673V11.2448C125.592 11.2448 125.735 11.3672 125.878 11.8979C125.918 12.0816 126.051 12.6122 126.227 13.3163L126.227 13.3174L126.229 13.3242C126.405 14.027 126.623 14.9012 126.837 15.7754L127.633 18.9999H131.612C130.98 16.857 130.449 14.9999 130.02 13.4897L129.224 10.7346C130.551 9.61215 130.878 9.12235 131.02 8.53051C131.143 8.06113 131.245 7.02031 131.265 6.2448C131.265 5.26521 131.143 4.55092 130.878 3.9999C130.673 3.57133 130.224 2.9999 129.878 2.755C129.551 2.51011 128.959 2.20398 128.551 2.06113C128.122 1.89787 126.429 1.75501 124.347 1.69379L120.857 1.59175L120.837 10.2856ZM134.286 18.9795V10.306V1.63256H138.163V18.9795H134.286ZM153.061 10.306V18.9795H156.939C156.918 13.3672 156.98 11.6734 157.082 11.5713C157.163 11.4897 157.796 13.1019 158.469 15.1428L159.714 18.8775L163.673 18.9795C162.771 16.5268 162.132 14.7459 161.662 13.4351C161.451 12.8481 161.274 12.3553 161.122 11.9387L160.265 9.4897C162.612 3.79582 163.327 2.04072 163.367 1.89787C163.449 1.69379 163.02 1.65297 161.592 1.69379L159.714 1.7346C158.041 5.85704 157.429 7.28562 157.286 7.55092C157.061 7.9999 157.02 7.61215 156.939 4.89786L156.837 1.7346L153.061 1.63256V10.306ZM90.7959 27.9182C90.7959 27.857 90.9388 27.6325 91.1429 27.4489C91.3265 27.2652 91.6735 27.1427 91.898 27.1836C92.1224 27.2244 92.4082 27.408 92.5306 27.6121C92.6939 27.857 92.6939 28.0611 92.5306 28.3264C92.4082 28.5101 92.0816 28.7142 91.8163 28.7346C91.5102 28.7754 91.2245 28.6733 91.0612 28.4285C90.9184 28.2244 90.7959 27.9999 90.7959 27.9182ZM95.2041 27.5713C94.8163 27.8774 94.6531 28.1631 94.6735 28.5917C94.6939 28.9795 94.5102 29.3468 94.1837 29.6529C93.9184 29.8978 93.6939 30.2652 93.6735 30.4693C93.6735 30.6938 93.8163 30.8162 94.0816 30.8162C94.4694 30.8162 94.4898 30.9591 94.4898 33.1631V35.5101H96.1224V30.8162C97.3265 30.8162 97.551 30.7346 97.551 30.5101C97.551 30.3468 97.6531 30.2244 97.7755 30.2652C97.898 30.2856 98.4694 31.4897 99.0408 32.9182C100.041 35.408 100.082 35.5713 99.7959 36.0815C99.5714 36.4693 99.2857 36.6529 98.8163 36.6938C98.2041 36.7346 98.1633 36.7958 98.1633 37.5101V38.2652C99.8163 38.0203 100.265 37.8162 100.653 37.408C101 37.0407 101.633 35.6529 102.408 33.5713C103.082 31.7754 103.694 30.1427 103.755 29.9591C103.857 29.6529 103.735 29.5917 103 29.5917H102.143C101.265 32.4489 100.959 33.2652 100.857 33.2652C100.776 33.2652 100.429 32.4489 100.102 31.4285L99.4898 29.5917C97.1224 29.6121 96.3673 29.5305 96.2857 29.4489C96.2245 29.3672 96.2449 29.0815 96.3469 28.8366C96.4898 28.4489 96.6531 28.3876 97.1429 28.4693C97.6531 28.5509 97.7755 28.4897 97.9592 28.0203C98.1224 27.6325 98.102 27.4489 97.9184 27.3264C97.7755 27.2244 97.2245 27.1427 96.7143 27.1427C96.0816 27.1427 95.5918 27.2856 95.2041 27.5713ZM107.51 27.9182C107.49 27.7346 107.653 27.4897 107.878 27.3672C108.082 27.2448 108.327 27.1631 108.408 27.1427C108.51 27.1427 108.755 27.2448 108.98 27.3468C109.204 27.4693 109.388 27.7142 109.388 27.9182C109.388 28.1019 109.286 28.3876 109.143 28.5305C109 28.6529 108.714 28.7754 108.469 28.7754C108.245 28.7754 107.939 28.6733 107.796 28.5305C107.653 28.3876 107.531 28.1019 107.51 27.9182ZM58.1633 27.9999C57.5714 28.306 57.0816 28.755 56.7959 29.2856C56.449 29.9182 56.3265 30.4489 56.3265 31.5305C56.3265 32.6325 56.4286 33.1631 56.7755 33.857C57.0612 34.3876 57.5306 34.8978 57.9592 35.1223C58.3469 35.3468 58.9388 35.5101 59.2857 35.5101C59.7347 35.5305 60.1225 35.755 60.7551 36.4285C61.5714 37.2856 61.6939 37.3468 62.5918 37.306L63.5714 37.2448L61.8367 35.306C62.8163 34.4285 63.2449 33.7754 63.4082 33.2652C63.6327 32.6529 63.7143 31.9591 63.6326 31.1223C63.5714 30.3876 63.3673 29.5917 63.102 29.1427C62.8571 28.7142 62.3469 28.2244 61.9796 28.0407C61.6327 27.857 60.8163 27.6529 60.2041 27.6121C59.3061 27.5509 58.898 27.6121 58.1633 27.9999ZM86.6939 28.9182C86.6735 28.7754 86.7755 28.5509 86.9388 28.408C87.102 28.2856 87.3878 28.1631 87.5918 28.1631C87.8776 28.1631 87.9592 28.3264 87.9592 28.8774C87.9592 29.5713 87.9796 29.5917 88.7755 29.5917C89.551 29.5917 89.5918 29.6325 89.5918 30.204C89.5918 30.7754 89.551 30.8162 87.9592 30.8162L87.9388 32.306C87.9388 33.2448 88.0408 33.8774 88.2041 34.0407C88.3469 34.1836 88.7551 34.2856 89.1225 34.2448C89.7347 34.1836 89.7959 34.2448 89.7959 34.755C89.7959 35.0611 89.6939 35.3468 89.5918 35.408C89.4694 35.4693 88.898 35.5101 88.3061 35.5305C87.4898 35.5305 87.1429 35.4489 86.8367 35.1019C86.4898 34.755 86.4286 34.3672 86.3673 32.755C86.3265 31.1836 86.2653 30.8162 86.0204 30.8162C85.8571 30.8162 85.6531 30.6938 85.5918 30.5713C85.5102 30.4285 85.7551 30.0611 86.102 29.755C86.449 29.4285 86.7143 29.0611 86.6939 28.9182ZM141.633 28.408C141.469 28.5509 141.367 28.7754 141.388 28.9182C141.408 29.0611 141.143 29.4285 140.796 29.755C140.449 30.0611 140.204 30.4285 140.286 30.5713C140.347 30.6938 140.551 30.8162 140.714 30.8162C140.959 30.8162 141.02 31.1836 141.061 32.755C141.122 34.3672 141.184 34.755 141.531 35.1019C141.837 35.4489 142.184 35.5305 143 35.5305C143.592 35.5101 144.163 35.4693 144.286 35.408C144.388 35.3468 144.49 35.0611 144.49 34.755C144.49 34.2448 144.429 34.1836 143.816 34.2448C143.449 34.2856 143.041 34.1836 142.898 34.0407C142.735 33.8774 142.633 33.2448 142.633 32.306L142.653 30.8162C144.245 30.8162 144.286 30.7754 144.286 30.204C144.286 29.6325 144.245 29.5917 143.469 29.5917C142.673 29.5917 142.653 29.5713 142.653 28.8774C142.653 28.3264 142.571 28.1631 142.286 28.1631C142.082 28.1631 141.796 28.2856 141.633 28.408ZM72.6122 30.0611C72.5918 29.9182 72.8776 29.7142 73.2653 29.6121C73.6531 29.5101 74.3265 29.4285 74.7347 29.408C75.1633 29.408 75.8163 29.5305 76.1633 29.6938C76.5306 29.857 76.9592 30.2244 77.0816 30.5101C77.2449 30.8162 77.3469 31.8774 77.3469 35.5101H76.7347C76.2857 35.5101 76.102 35.408 76.0204 35.1019C75.9771 34.9287 75.9522 34.8289 75.8941 34.8027C75.8153 34.7674 75.6757 34.867 75.3469 35.1019C74.9796 35.3876 74.4898 35.5305 73.8163 35.5101C73 35.5101 72.7959 35.4285 72.4286 34.9591C72.1429 34.5509 72.0408 34.1631 72.0816 33.5917C72.1225 32.9999 72.2857 32.6938 72.7143 32.3672C73.102 32.0815 73.7347 31.8978 74.5102 31.8366C75.5714 31.755 75.7143 31.6938 75.6735 31.3468C75.6327 31.1427 75.449 30.857 75.2653 30.7346C75 30.5713 74.6735 30.5713 74.0408 30.755C73.2653 30.9795 73.1225 30.9591 72.898 30.6529C72.7551 30.4693 72.6327 30.204 72.6122 30.0611ZM81.5102 29.5917C81.2857 29.6938 81.0204 29.8774 80.9592 29.9795C80.8776 30.1019 80.7143 30.204 80.6122 30.204C80.4898 30.204 80.4082 30.0611 80.4082 29.8978C80.4082 29.6938 80.1837 29.5917 79.6939 29.5917H78.9796V35.5101H80.6122C80.6122 32.7142 80.7347 31.7142 80.8775 31.4285C81.0408 31.0815 81.3265 30.8978 81.7347 30.857C82.0816 30.8366 82.4694 30.9182 82.6122 31.0611C82.7959 31.2448 82.8776 31.9591 82.8571 33.4285V35.5101H84.4898C84.4898 30.8162 84.449 30.5713 84.0204 30.1019C83.7143 29.7346 83.3061 29.5305 82.7551 29.4897C82.3061 29.4285 81.7551 29.4693 81.5102 29.5917ZM112.796 29.9795C113 29.7958 113.306 29.5917 113.469 29.5305C113.633 29.4489 114.143 29.4489 114.592 29.4897C115.041 29.5509 115.551 29.7346 115.714 29.8978C115.98 30.1836 116.102 30.1836 116.796 29.7754C117.367 29.4489 117.755 29.3672 118.327 29.4693C118.755 29.5305 119.265 29.7958 119.531 30.1019C119.959 30.5713 120 30.8162 120 35.5101H118.367V33.4693C118.367 32.3468 118.327 31.2856 118.265 31.1223C118.204 30.9387 117.918 30.8162 117.551 30.8162C117.143 30.8162 116.837 30.9727 116.633 31.2856C116.408 31.6121 116.327 32.2856 116.327 35.5101H114.694V33.5713C114.694 32.5101 114.592 31.4489 114.49 31.2244C114.354 30.9523 114.082 30.8162 113.673 30.8162C113.265 30.8162 112.993 30.9523 112.857 31.2244C112.735 31.4489 112.653 32.5101 112.653 35.5101H111.02V29.5917H111.633C112.041 29.5917 112.279 29.7142 112.347 29.9591C112.449 30.2856 112.469 30.2856 112.796 29.9795ZM123.918 29.7958C123.367 30.1427 123.245 30.1631 123.163 29.8978C123.102 29.7142 122.796 29.5917 122.347 29.5917H121.633L121.735 38.0611L123.265 38.1631C123.265 35.2652 123.306 35.1223 123.612 35.2448C123.816 35.3264 124.408 35.408 124.939 35.4489C125.735 35.4897 126 35.4285 126.388 35.0611C126.653 34.7958 126.98 34.2244 127.102 33.7754C127.245 33.3264 127.347 32.7346 127.347 32.4489C127.347 32.1631 127.265 31.6121 127.143 31.2244C127.041 30.8366 126.735 30.306 126.49 30.0611C126.224 29.7958 125.694 29.5509 125.306 29.4897C124.796 29.408 124.408 29.4897 123.918 29.7958ZM128.939 29.9999C128.918 29.8978 129.204 29.7142 129.592 29.6121C129.98 29.4897 130.816 29.4489 131.429 29.4897C132.286 29.5713 132.673 29.7142 133.061 30.1019C133.531 30.5917 133.571 30.7754 133.673 35.5101H133.061C132.612 35.5101 132.429 35.408 132.347 35.1019C132.245 34.6938 132.245 34.6938 131.673 35.0815C131.367 35.306 130.898 35.5101 130.612 35.5305C130.327 35.5509 129.898 35.5509 129.633 35.5305C129.388 35.5305 129 35.3264 128.776 35.1019C128.49 34.8366 128.367 34.4285 128.367 33.8366C128.347 33.204 128.49 32.8366 128.816 32.4897C129.163 32.1427 129.612 31.9999 130.673 31.8774C131.429 31.7958 132.041 31.6529 132.041 31.5305C132.041 31.4285 131.918 31.1427 131.755 30.9182C131.49 30.5509 131.367 30.5305 130.408 30.7142C129.49 30.8978 129.327 30.8774 129.163 30.5713C129.061 30.3672 128.959 30.1223 128.939 29.9999ZM136.551 29.7346C136.163 29.9387 135.673 30.3264 135.469 30.6121C135.265 30.8978 135.041 31.5305 134.959 32.0407C134.878 32.6733 134.939 33.2652 135.163 33.9387C135.408 34.6325 135.673 34.9795 136.122 35.204C136.449 35.3672 137.163 35.5305 137.694 35.5305C138.245 35.5509 138.878 35.4693 139.122 35.3264C139.449 35.1631 139.592 34.9182 139.592 34.4897C139.592 33.9999 139.531 33.8978 139.224 33.9999C139.041 34.0815 138.694 34.1836 138.469 34.2448C138.245 34.2856 137.816 34.2856 137.49 34.204C137.102 34.1223 136.878 33.8978 136.714 33.4285C136.612 33.0611 136.551 32.4285 136.612 32.0407C136.673 31.6529 136.878 31.1836 137.061 31.0203C137.327 30.7958 137.633 30.755 138.388 30.8774C139.367 31.0203 139.388 30.9999 139.49 30.4693C139.551 30.1427 139.531 29.8366 139.449 29.755C139.347 29.6733 138.816 29.5509 138.265 29.4897C137.51 29.3876 137.061 29.4693 136.551 29.7346ZM65.7143 34.9999C65.2449 34.5101 65.2041 34.3264 65.1224 32.0407L65.0612 29.5917H66.7347V31.4285C66.7347 32.4489 66.8163 33.4897 66.9388 33.7754C67.0816 34.1427 67.2857 34.2856 67.6939 34.2856C68.0204 34.2856 68.4286 34.1223 68.6327 33.9182C68.9388 33.6325 69 33.2244 68.9796 29.5917H70.6122V35.5101H70C69.6327 35.5101 69.3469 35.3876 69.2857 35.204C69.1837 34.9387 69.1225 34.9387 68.7143 35.204C68.4694 35.3876 67.8163 35.5305 67.2449 35.5305C66.4082 35.5305 66.1224 35.4285 65.7143 34.9999ZM91 32.5509V35.5101H92.6327V29.5917H91V32.5509ZM107.531 35.5101V32.5509V29.5917H109.163V35.5101H107.531ZM145.592 34.0203C145.51 34.1019 145.449 34.408 145.469 34.7346C145.49 35.1223 145.653 35.3876 146.02 35.5713C146.469 35.7958 146.592 35.7754 146.98 35.3672C147.388 34.9795 147.408 34.857 147.184 34.408C147 34.0203 146.755 33.8774 146.347 33.8774C146.02 33.8774 145.694 33.9387 145.592 34.0203ZM124.694 6.63253V8.97947C126.469 8.97947 126.837 8.87743 127.143 8.57131C127.367 8.34682 127.612 7.91825 127.673 7.59172C127.755 7.2856 127.755 6.57131 127.694 6.02029C127.612 5.26519 127.469 4.89784 127.122 4.63253C126.796 4.38764 126.286 4.26519 125.653 4.2856H124.694V6.63253ZM86.8465 9.21084L86.8463 9.21123L86.8461 9.21376C86.7863 9.67688 86.7198 10.1938 86.6531 10.6938C86.5102 11.9182 86.3673 12.9591 86.3469 12.9999C86.3469 13.0407 86.7347 13.0611 87.2449 13.0611C87.7551 13.0611 88.1633 12.9999 88.1633 12.8978C88.1549 12.8647 88.1231 12.6291 88.0731 12.2598C88 11.7206 87.8884 10.8961 87.7551 9.99988C87.5306 8.48968 87.3061 7.20396 87.2449 7.14274C87.2041 7.08151 87.102 7.36723 87.0408 7.75498C87.0047 7.98409 86.9329 8.54094 86.8465 9.21084ZM58.1429 30.4489C58.2653 29.9795 58.5714 29.4489 58.8163 29.2856H58.8367C59.0816 29.1223 59.5918 28.9795 59.9592 28.9795C60.3061 28.9795 60.7551 29.0407 60.9388 29.1223C61.1224 29.2244 61.4286 29.5713 61.5918 29.8978C61.7551 30.2244 61.898 31.0203 61.9184 31.6325C61.9184 32.3468 61.7959 32.9591 61.5714 33.306C61.3878 33.6325 60.9796 33.9795 60.6735 34.0815C60.3469 34.204 59.8776 34.2652 59.5918 34.204C59.3061 34.1427 58.8775 33.8774 58.6326 33.6325C58.3673 33.3468 58.1224 32.7754 58.0408 32.2448C57.9796 31.7346 58.0204 30.9387 58.1429 30.4489ZM123.714 31.0611C123.592 31.204 123.449 31.5713 123.367 31.8774C123.306 32.204 123.347 32.8162 123.449 33.2652C123.551 33.7142 123.796 34.1223 123.959 34.1836C124.122 34.2448 124.449 34.2856 124.673 34.2856C124.959 34.2856 125.184 34.0407 125.408 33.5101C125.612 33.0203 125.673 32.5101 125.592 32.0407C125.51 31.6529 125.347 31.204 125.224 31.0611C125.082 30.9182 124.735 30.7958 124.449 30.8162C124.143 30.8162 123.816 30.9387 123.714 31.0611ZM73.7755 33.306C73.898 33.1223 74.2653 32.8978 74.5918 32.8366C74.8902 32.7619 75.2398 32.7044 75.3912 32.6795L75.4286 32.6733C75.5714 32.6733 75.6939 32.8774 75.6939 33.1631C75.6939 33.4489 75.5102 33.857 75.2857 34.0815C75.0612 34.306 74.6735 34.4693 74.449 34.4285C74.2041 34.408 73.898 34.2244 73.7755 34.0203C73.6122 33.7754 73.6122 33.5713 73.7755 33.306ZM131 32.7958C130.714 32.857 130.367 32.9999 130.224 33.1223C130.082 33.2652 129.959 33.5713 129.98 33.8162C129.98 34.0815 130.143 34.3264 130.347 34.3876C130.531 34.4489 130.918 34.4285 131.204 34.3264C131.49 34.2244 131.776 33.9182 131.878 33.5917C131.959 33.2856 131.98 32.9591 131.918 32.857C131.857 32.7346 131.755 32.6733 131.673 32.6733C131.666 32.675 131.657 32.6768 131.647 32.6789L131.621 32.684C131.493 32.7103 131.246 32.7607 131 32.7958Z" fill="#002B5C"/>
</g>
<defs>
<clipPath id="clip0_253_358">
<rect width="163.673" height="40" fill="white"/>
</clipPath>
</defs>
</svg>
