<svg width="667" height="371" viewBox="0 0 667 371" fill="none" xmlns="http://www.w3.org/2000/svg">
    <g clip-path="url(#clip0_10575_47481)">
        <rect y="120" width="163" height="120" rx="24" fill="#E5D1FC"/>
        <path d="M66.121 187.2C64.7877 187.2 63.6743 186.993 62.781 186.58C61.8877 186.167 61.221 185.553 60.781 184.74C60.341 183.913 60.121 182.873 60.121 181.62V172H62.561V181.56C62.561 182.427 62.6743 183.12 62.901 183.64C63.141 184.16 63.521 184.54 64.041 184.78C64.561 185.007 65.2543 185.12 66.121 185.12C67.001 185.12 67.6943 185.007 68.201 184.78C68.721 184.54 69.101 184.16 69.341 183.64C69.581 183.12 69.701 182.427 69.701 181.56V172H72.141V181.62C72.141 182.873 71.9143 183.913 71.461 184.74C71.021 185.553 70.3543 186.167 69.461 186.58C68.581 186.993 67.4677 187.2 66.121 187.2ZM79.0005 187.2C77.9605 187.2 77.0939 187.067 76.4005 186.8C75.7205 186.533 75.2072 186.133 74.8605 185.6C74.5272 185.067 74.3539 184.387 74.3405 183.56H76.5205C76.5472 184.013 76.6472 184.38 76.8205 184.66C76.9939 184.927 77.2539 185.127 77.6005 185.26C77.9472 185.393 78.3939 185.46 78.9405 185.46C79.4739 185.46 79.9205 185.407 80.2805 185.3C80.6405 185.193 80.9072 185.027 81.0805 184.8C81.2539 184.573 81.3405 184.3 81.3405 183.98C81.3405 183.74 81.2872 183.54 81.1805 183.38C81.0872 183.207 80.9205 183.067 80.6805 182.96C80.4405 182.84 80.1205 182.733 79.7205 182.64L77.4205 182.14C76.5005 181.927 75.8139 181.58 75.3605 181.1C74.9072 180.607 74.6805 179.967 74.6805 179.18C74.6805 178.513 74.8472 177.94 75.1805 177.46C75.5139 176.98 76.0005 176.62 76.6405 176.38C77.2805 176.127 78.0539 176 78.9605 176C79.8672 176 80.6405 176.133 81.2805 176.4C81.9205 176.653 82.4072 177.033 82.7405 177.54C83.0872 178.047 83.2605 178.66 83.2605 179.38H81.1005C81.0472 179.007 80.9405 178.7 80.7805 178.46C80.6205 178.22 80.3939 178.04 80.1005 177.92C79.8072 177.8 79.4472 177.74 79.0205 177.74C78.5805 177.74 78.2072 177.793 77.9005 177.9C77.6072 178.007 77.3805 178.16 77.2205 178.36C77.0605 178.56 76.9805 178.8 76.9805 179.08C76.9805 179.307 77.0339 179.5 77.1405 179.66C77.2472 179.82 77.4072 179.96 77.6205 180.08C77.8339 180.187 78.1205 180.28 78.4805 180.36L80.9605 180.92C81.5739 181.053 82.0739 181.247 82.4605 181.5C82.8605 181.753 83.1539 182.08 83.3405 182.48C83.5405 182.867 83.6405 183.333 83.6405 183.88C83.6405 184.613 83.4672 185.227 83.1205 185.72C82.7739 186.213 82.2539 186.587 81.5605 186.84C80.8672 187.08 80.0139 187.2 79.0005 187.2ZM90.3195 187.2C89.2128 187.2 88.2861 186.987 87.5395 186.56C86.8061 186.133 86.2528 185.507 85.8795 184.68C85.5061 183.853 85.3195 182.827 85.3195 181.6C85.3195 180.36 85.5061 179.327 85.8795 178.5C86.2528 177.673 86.8061 177.053 87.5395 176.64C88.2861 176.213 89.2195 176 90.3395 176C91.9661 176 93.2061 176.427 94.0595 177.28C94.9128 178.133 95.3395 179.367 95.3395 180.98V182.08H86.6595V180.54H93.1995C93.1461 179.58 92.8861 178.873 92.4195 178.42C91.9661 177.967 91.2795 177.74 90.3595 177.74C89.6795 177.74 89.1261 177.873 88.6995 178.14C88.2861 178.393 87.9861 178.8 87.7995 179.36C87.6128 179.92 87.5195 180.66 87.5195 181.58C87.5195 182.5 87.6128 183.247 87.7995 183.82C87.9861 184.38 88.2795 184.793 88.6795 185.06C89.0928 185.313 89.6395 185.44 90.3195 185.44C91.0528 185.44 91.6395 185.3 92.0795 185.02C92.5328 184.727 92.8395 184.287 92.9995 183.7H95.1795C95.1128 184.407 94.8661 185.027 94.4395 185.56C94.0261 186.093 93.4661 186.5 92.7595 186.78C92.0528 187.06 91.2395 187.2 90.3195 187.2ZM97.6163 176.2H99.8563V179L99.7163 178.52C99.8097 178.12 99.9697 177.74 100.196 177.38C100.423 177.007 100.75 176.693 101.176 176.44C101.616 176.173 102.15 176.04 102.776 176.04H103.796V178.06H102.816C102.203 178.06 101.67 178.187 101.216 178.44C100.776 178.693 100.443 179.047 100.216 179.5C99.9897 179.94 99.8763 180.453 99.8763 181.04V187H97.6163V176.2Z" fill="#30343A"/>
    </g>
    <path d="M196.784 106.451C197.033 106.57 197.332 106.465 197.451 106.216L199.394 102.157C199.514 101.908 199.408 101.61 199.159 101.49C198.91 101.371 198.612 101.476 198.492 101.725L196.765 105.333L193.157 103.606C192.908 103.486 192.61 103.592 192.49 103.841C192.371 104.09 192.476 104.388 192.725 104.508L196.784 106.451ZM75.4676 106.177C87.292 74.9755 111.875 58.8151 136.299 58.5043C160.712 58.1937 185.092 73.7188 196.528 106.166L197.472 105.834C185.911 73.0324 161.179 57.1877 136.286 57.5044C111.403 57.821 86.4843 74.285 74.5324 105.823L75.4676 106.177Z" fill="#37404D" fill-opacity="0.44"/>
    <rect x="100" y="51" width="72" height="26" rx="13" fill="#F8F3FE"/>
    <path d="M110.64 68V67.19C110.34 67.76 109.7 68.1 108.83 68.1C107.39 68.1 106.51 67.14 106.51 65.33C106.51 63.54 107.38 62.5 108.86 62.5C109.66 62.5 110.28 62.8 110.59 63.31V60.5H111.45V68H110.64ZM107.4 65.32C107.4 66.69 107.91 67.34 108.99 67.34C110.07 67.34 110.59 66.67 110.59 65.3C110.59 63.9 110.06 63.26 108.99 63.26C107.91 63.26 107.4 63.92 107.4 65.32ZM115.16 68.1C113.53 68.1 112.73 67.15 112.73 65.3C112.73 63.45 113.52 62.5 115.16 62.5C116.74 62.5 117.59 63.34 117.59 64.99V65.47H113.59C113.63 66.78 114.07 67.34 115.16 67.34C115.97 67.34 116.48 67.04 116.66 66.38H117.51C117.41 67.45 116.51 68.1 115.16 68.1ZM113.61 64.79H116.76C116.71 63.73 116.19 63.25 115.17 63.25C114.17 63.25 113.71 63.71 113.61 64.79ZM118.84 70V62.6H119.65V63.39C119.95 62.83 120.59 62.5 121.45 62.5C122.89 62.5 123.77 63.46 123.77 65.27C123.77 67.06 122.9 68.1 121.42 68.1C120.63 68.1 120.01 67.81 119.7 67.31V70H118.84ZM119.69 65.3C119.69 66.7 120.22 67.34 121.29 67.34C122.37 67.34 122.88 66.68 122.88 65.28C122.88 63.91 122.37 63.26 121.29 63.26C120.21 63.26 119.69 63.93 119.69 65.3ZM127.282 68.1C125.612 68.1 124.752 67.14 124.752 65.3C124.752 63.46 125.612 62.5 127.282 62.5C128.942 62.5 129.812 63.46 129.812 65.3C129.812 67.14 128.942 68.1 127.282 68.1ZM125.642 65.3C125.642 66.72 126.142 67.34 127.282 67.34C128.422 67.34 128.922 66.72 128.922 65.3C128.922 63.88 128.422 63.26 127.282 63.26C126.142 63.26 125.642 63.88 125.642 65.3ZM132.967 68.1C131.467 68.1 130.747 67.52 130.727 66.29H131.587C131.617 67.02 132.037 67.34 132.957 67.34C133.857 67.34 134.307 67.06 134.307 66.52C134.307 66.12 134.067 65.92 133.417 65.77L132.257 65.51C131.367 65.31 130.917 64.82 130.917 64.04C130.917 63.06 131.647 62.5 132.947 62.5C134.237 62.5 134.987 63.09 134.997 64.18H134.137C134.057 63.55 133.687 63.26 132.957 63.26C132.217 63.26 131.807 63.53 131.807 64.01C131.807 64.38 132.047 64.59 132.637 64.73L133.897 65.02C134.777 65.22 135.197 65.7 135.197 66.49C135.197 67.55 134.437 68.1 132.967 68.1ZM136.399 68V62.6H137.259V68H136.399ZM136.399 61.6V60.5H137.259V61.6H136.399ZM140.671 68C139.681 68 139.361 67.53 139.361 66.67V63.35H138.361V62.6H139.361V61H140.211V62.6H141.561V63.35H140.211V66.56C140.211 66.99 140.301 67.25 140.911 67.25H141.571V68H140.671ZM145.769 68V60.5H150.869V61.3H146.719V63.81H150.469V64.62H146.719V67.2H150.959V68H145.769ZM154.537 68V61.3H152.067V60.5H157.957V61.3H155.487V68H154.537ZM159.265 68V60.5H160.215V63.77H164.055V60.5H165.005V68H164.055V64.57H160.215V68H159.265Z" fill="#30343A"/>
    <path d="M371.871 106.483C372.138 106.554 372.412 106.396 372.483 106.129L373.642 101.781C373.713 101.514 373.554 101.24 373.288 101.169C373.021 101.098 372.747 101.256 372.676 101.523L371.646 105.388L367.781 104.358C367.514 104.287 367.24 104.446 367.169 104.712C367.098 104.979 367.256 105.253 367.523 105.324L371.871 106.483ZM230.424 106.264C244.14 84.2395 272.752 72.7245 301.344 72.5031C329.936 72.2817 358.307 83.3539 371.567 106.251L372.433 105.749C358.926 82.4282 330.134 71.2801 301.336 71.5031C272.539 71.7261 243.534 83.32 229.576 105.736L230.424 106.264Z" fill="#37404D" fill-opacity="0.44"/>
    <path d="M293.216 259.549C292.967 259.43 292.668 259.535 292.549 259.784L290.606 263.843C290.486 264.092 290.592 264.39 290.841 264.51C291.09 264.629 291.388 264.524 291.508 264.275L293.235 260.667L296.843 262.394C297.092 262.514 297.39 262.408 297.51 262.159C297.629 261.91 297.524 261.612 297.275 261.492L293.216 259.549ZM414.532 259.823C402.708 291.025 378.125 307.185 353.701 307.496C329.288 307.806 304.908 292.281 293.472 259.834L292.528 260.166C304.089 292.968 328.821 308.812 353.714 308.496C378.597 308.179 403.516 291.715 415.468 260.177L414.532 259.823Z" fill="#A55EFF"/>
    <path d="M108.216 259.549C107.967 259.43 107.668 259.535 107.549 259.784L105.606 263.843C105.486 264.092 105.592 264.39 105.841 264.51C106.09 264.629 106.388 264.524 106.508 264.275L108.235 260.667L111.843 262.394C112.092 262.514 112.39 262.408 112.51 262.159C112.629 261.91 112.524 261.612 112.275 261.492L108.216 259.549ZM229.532 259.823C217.708 291.025 193.125 307.185 168.701 307.496C144.288 307.806 119.908 292.281 108.472 259.834L107.528 260.166C119.089 292.968 143.821 308.812 168.714 308.496C193.597 308.179 218.516 291.715 230.468 260.177L229.532 259.823Z" fill="#A55EFF"/>
    <path d="M293.211 259.547C292.961 259.43 292.664 259.538 292.547 259.789L290.644 263.866C290.527 264.117 290.635 264.414 290.886 264.531C291.136 264.648 291.434 264.54 291.55 264.289L293.242 260.665L296.866 262.356C297.117 262.473 297.414 262.365 297.531 262.114C297.648 261.864 297.54 261.567 297.289 261.45L293.211 259.547ZM570.534 259.818C543.513 328.92 487.284 364.8 431.328 365.49C375.38 366.18 319.605 331.692 293.47 259.829L292.53 260.171C318.798 332.399 374.933 367.186 431.34 366.49C487.738 365.795 544.308 329.63 571.466 260.182L570.534 259.818Z" fill="#A55EFF"/>
    <rect x="316" y="272" width="75" height="46" rx="23" fill="#F8F3FE"/>
    <path d="M337.322 289.1C335.822 289.1 335.102 288.52 335.082 287.29H335.942C335.972 288.02 336.392 288.34 337.312 288.34C338.212 288.34 338.662 288.06 338.662 287.52C338.662 287.12 338.422 286.92 337.772 286.77L336.612 286.51C335.722 286.31 335.272 285.82 335.272 285.04C335.272 284.06 336.002 283.5 337.302 283.5C338.592 283.5 339.342 284.09 339.352 285.18H338.492C338.412 284.55 338.042 284.26 337.312 284.26C336.572 284.26 336.162 284.53 336.162 285.01C336.162 285.38 336.402 285.59 336.992 285.73L338.252 286.02C339.132 286.22 339.552 286.7 339.552 287.49C339.552 288.55 338.792 289.1 337.322 289.1ZM342.644 289C341.654 289 341.334 288.53 341.334 287.67V284.35H340.334V283.6H341.334V282H342.184V283.6H343.534V284.35H342.184V287.56C342.184 287.99 342.274 288.25 342.884 288.25H343.544V289H342.644ZM346.318 289.1C345.128 289.1 344.438 288.54 344.438 287.57C344.438 286.63 345.068 286.03 346.158 285.93L348.118 285.74V285.4C348.118 284.59 347.728 284.25 346.808 284.25C345.938 284.25 345.568 284.55 345.498 285.33H344.648C344.678 284.13 345.428 283.5 346.808 283.5C348.188 283.5 348.968 284.13 348.968 285.23V289H348.168V288.24C347.818 288.79 347.178 289.1 346.318 289.1ZM345.328 287.49C345.328 288.07 345.758 288.36 346.498 288.36C347.528 288.36 348.118 287.79 348.118 286.88V286.4L346.398 286.58C345.688 286.66 345.328 286.96 345.328 287.49ZM353.833 289L351.693 286.62H351.263V289H350.403V281.5H351.263V285.9H351.703L353.783 283.6H354.843L352.403 286.28L354.953 289H353.833ZM356.037 289V283.6H356.897V289H356.037ZM356.037 282.6V281.5H356.897V282.6H356.037ZM358.42 289V283.6H359.23V284.44C359.62 283.76 360.23 283.5 360.98 283.5C362.14 283.5 362.84 284.14 362.84 285.39V289H361.98V285.44C361.98 284.8 361.69 284.25 360.77 284.25C359.7 284.25 359.28 285.01 359.28 285.94V289H358.42ZM366.52 291.09C365.03 291.09 364.25 290.49 364.24 289.34H365.08C365.11 290.01 365.58 290.33 366.52 290.33C367.5 290.33 367.97 289.98 367.97 289.26V288.06C367.66 288.59 367.04 288.9 366.26 288.9C364.85 288.9 364 287.89 364 286.21C364 284.52 364.87 283.5 366.29 283.5C367.09 283.5 367.73 283.84 368.01 284.4V283.6H368.82V289.27C368.82 290.46 368.03 291.09 366.52 291.09ZM364.89 286.21C364.89 287.49 365.4 288.14 366.41 288.14C367.43 288.14 367.96 287.47 367.96 286.2C367.96 284.91 367.44 284.26 366.42 284.26C365.4 284.26 364.89 284.91 364.89 286.21ZM323.235 299V293.6H324.095V294.51C324.225 294.17 324.595 293.53 325.575 293.53H326.085V294.33H325.705C324.655 294.33 324.095 295.01 324.095 295.92V299H323.235ZM329.34 299.1C327.71 299.1 326.91 298.15 326.91 296.3C326.91 294.45 327.7 293.5 329.34 293.5C330.92 293.5 331.77 294.34 331.77 295.99V296.47H327.77C327.81 297.78 328.25 298.34 329.34 298.34C330.15 298.34 330.66 298.04 330.84 297.38H331.69C331.59 298.45 330.69 299.1 329.34 299.1ZM327.79 295.79H330.94C330.89 294.73 330.37 294.25 329.35 294.25C328.35 294.25 327.89 294.71 327.79 295.79ZM334.11 299L332.61 293.6H333.52L334.61 298.01H334.67L335.79 293.63H336.81L337.97 298.01H338.04L339.1 293.6H340.01L338.51 299H337.49L336.34 294.59H336.28L335.12 299H334.11ZM342.451 299.1C341.261 299.1 340.571 298.54 340.571 297.57C340.571 296.63 341.201 296.03 342.291 295.93L344.251 295.74V295.4C344.251 294.59 343.861 294.25 342.941 294.25C342.071 294.25 341.701 294.55 341.631 295.33H340.781C340.811 294.13 341.561 293.5 342.941 293.5C344.321 293.5 345.101 294.13 345.101 295.23V299H344.301V298.24C343.951 298.79 343.311 299.1 342.451 299.1ZM341.461 297.49C341.461 298.07 341.891 298.36 342.631 298.36C343.661 298.36 344.251 297.79 344.251 296.88V296.4L342.531 296.58C341.821 296.66 341.461 296.96 341.461 297.49ZM346.535 299V293.6H347.395V294.51C347.525 294.17 347.895 293.53 348.875 293.53H349.385V294.33H349.005C347.955 294.33 347.395 295.01 347.395 295.92V299H346.535ZM354.341 299V298.19C354.041 298.76 353.401 299.1 352.531 299.1C351.091 299.1 350.211 298.14 350.211 296.33C350.211 294.54 351.081 293.5 352.561 293.5C353.361 293.5 353.981 293.8 354.291 294.31V291.5H355.151V299H354.341ZM351.101 296.32C351.101 297.69 351.611 298.34 352.691 298.34C353.771 298.34 354.291 297.67 354.291 296.3C354.291 294.9 353.761 294.26 352.691 294.26C351.611 294.26 351.101 294.92 351.101 296.32ZM358.611 299.1C357.111 299.1 356.391 298.52 356.371 297.29H357.231C357.261 298.02 357.681 298.34 358.601 298.34C359.501 298.34 359.951 298.06 359.951 297.52C359.951 297.12 359.711 296.92 359.061 296.77L357.901 296.51C357.011 296.31 356.561 295.82 356.561 295.04C356.561 294.06 357.291 293.5 358.591 293.5C359.881 293.5 360.631 294.09 360.641 295.18H359.781C359.701 294.55 359.331 294.26 358.601 294.26C357.861 294.26 357.451 294.53 357.451 295.01C357.451 295.38 357.691 295.59 358.281 295.73L359.541 296.02C360.421 296.22 360.841 296.7 360.841 297.49C360.841 298.55 360.081 299.1 358.611 299.1ZM366.367 299.1C365.177 299.1 364.487 298.54 364.487 297.57C364.487 296.63 365.117 296.03 366.207 295.93L368.167 295.74V295.4C368.167 294.59 367.777 294.25 366.857 294.25C365.987 294.25 365.617 294.55 365.547 295.33H364.697C364.727 294.13 365.477 293.5 366.857 293.5C368.237 293.5 369.017 294.13 369.017 295.23V299H368.217V298.24C367.867 298.79 367.227 299.1 366.367 299.1ZM365.377 297.49C365.377 298.07 365.807 298.36 366.547 298.36C367.577 298.36 368.167 297.79 368.167 296.88V296.4L366.447 296.58C365.737 296.66 365.377 296.96 365.377 297.49ZM370.451 299V293.6H371.261V294.44C371.651 293.76 372.261 293.5 373.011 293.5C374.171 293.5 374.871 294.14 374.871 295.39V299H374.011V295.44C374.011 294.8 373.721 294.25 372.801 294.25C371.731 294.25 371.311 295.01 371.311 295.94V299H370.451ZM380.161 299V298.19C379.861 298.76 379.221 299.1 378.351 299.1C376.911 299.1 376.031 298.14 376.031 296.33C376.031 294.54 376.901 293.5 378.381 293.5C379.181 293.5 379.801 293.8 380.111 294.31V291.5H380.971V299H380.161ZM376.921 296.32C376.921 297.69 377.431 298.34 378.511 298.34C379.591 298.34 380.111 297.67 380.111 296.3C380.111 294.9 379.581 294.26 378.511 294.26C377.431 294.26 376.921 294.92 376.921 296.32ZM331.756 309.1C330.256 309.1 329.536 308.52 329.516 307.29H330.376C330.406 308.02 330.826 308.34 331.746 308.34C332.646 308.34 333.096 308.06 333.096 307.52C333.096 307.12 332.856 306.92 332.206 306.77L331.046 306.51C330.156 306.31 329.706 305.82 329.706 305.04C329.706 304.06 330.436 303.5 331.736 303.5C333.026 303.5 333.776 304.09 333.786 305.18H332.926C332.846 304.55 332.476 304.26 331.746 304.26C331.006 304.26 330.596 304.53 330.596 305.01C330.596 305.38 330.836 305.59 331.426 305.73L332.686 306.02C333.566 306.22 333.986 306.7 333.986 307.49C333.986 308.55 333.226 309.1 331.756 309.1ZM336.278 309L334.778 303.6H335.688L336.778 308.01H336.838L337.958 303.63H338.978L340.138 308.01H340.208L341.268 303.6H342.178L340.678 309H339.658L338.508 304.59H338.448L337.288 309H336.278ZM344.619 309.1C343.429 309.1 342.739 308.54 342.739 307.57C342.739 306.63 343.369 306.03 344.459 305.93L346.419 305.74V305.4C346.419 304.59 346.029 304.25 345.109 304.25C344.239 304.25 343.869 304.55 343.799 305.33H342.949C342.979 304.13 343.729 303.5 345.109 303.5C346.489 303.5 347.269 304.13 347.269 305.23V309H346.469V308.24C346.119 308.79 345.479 309.1 344.619 309.1ZM343.629 307.49C343.629 308.07 344.059 308.36 344.799 308.36C345.829 308.36 346.419 307.79 346.419 306.88V306.4L344.699 306.58C343.989 306.66 343.629 306.96 343.629 307.49ZM348.703 311V303.6H349.513V304.39C349.813 303.83 350.453 303.5 351.313 303.5C352.753 303.5 353.633 304.46 353.633 306.27C353.633 308.06 352.763 309.1 351.283 309.1C350.493 309.1 349.873 308.81 349.563 308.31V311H348.703ZM349.553 306.3C349.553 307.7 350.083 308.34 351.153 308.34C352.233 308.34 352.743 307.68 352.743 306.28C352.743 304.91 352.233 304.26 351.153 304.26C350.073 304.26 349.553 304.93 349.553 306.3ZM358.249 302.84C358.249 301.97 358.579 301.5 359.569 301.5H360.589V302.25H359.699C359.199 302.25 359.109 302.51 359.109 302.95V303.6H360.549V304.35H359.109V309H358.249V304.35H357.229V303.6H358.249V302.84ZM363.813 309.1C362.183 309.1 361.383 308.15 361.383 306.3C361.383 304.45 362.173 303.5 363.813 303.5C365.393 303.5 366.243 304.34 366.243 305.99V306.47H362.243C362.283 307.78 362.723 308.34 363.813 308.34C364.623 308.34 365.133 308.04 365.313 307.38H366.163C366.063 308.45 365.163 309.1 363.813 309.1ZM362.263 305.79H365.413C365.363 304.73 364.843 304.25 363.823 304.25C362.823 304.25 362.363 304.71 362.263 305.79ZM369.652 309.1C368.022 309.1 367.222 308.15 367.222 306.3C367.222 304.45 368.012 303.5 369.652 303.5C371.232 303.5 372.082 304.34 372.082 305.99V306.47H368.082C368.122 307.78 368.562 308.34 369.652 308.34C370.462 308.34 370.972 308.04 371.152 307.38H372.002C371.902 308.45 371.002 309.1 369.652 309.1ZM368.102 305.79H371.252C371.202 304.73 370.682 304.25 369.662 304.25C368.662 304.25 368.202 304.71 368.102 305.79ZM375.242 309.1C373.742 309.1 373.022 308.52 373.002 307.29H373.862C373.892 308.02 374.312 308.34 375.232 308.34C376.132 308.34 376.582 308.06 376.582 307.52C376.582 307.12 376.342 306.92 375.692 306.77L374.532 306.51C373.642 306.31 373.192 305.82 373.192 305.04C373.192 304.06 373.922 303.5 375.222 303.5C376.512 303.5 377.262 304.09 377.272 305.18H376.412C376.332 304.55 375.962 304.26 375.232 304.26C374.492 304.26 374.082 304.53 374.082 305.01C374.082 305.38 374.322 305.59 374.912 305.73L376.172 306.02C377.052 306.22 377.472 306.7 377.472 307.49C377.472 308.55 376.712 309.1 375.242 309.1Z" fill="#30343A"/>
    <rect x="266" y="66" width="76" height="26" rx="13" fill="#F8F3FE"/>
    <path d="M276.667 83V82.19C276.367 82.76 275.727 83.1 274.857 83.1C273.417 83.1 272.537 82.14 272.537 80.33C272.537 78.54 273.407 77.5 274.887 77.5C275.687 77.5 276.307 77.8 276.617 78.31V75.5H277.477V83H276.667ZM273.427 80.32C273.427 81.69 273.937 82.34 275.017 82.34C276.097 82.34 276.617 81.67 276.617 80.3C276.617 78.9 276.087 78.26 275.017 78.26C273.937 78.26 273.427 78.92 273.427 80.32ZM281.188 83.1C279.558 83.1 278.758 82.15 278.758 80.3C278.758 78.45 279.548 77.5 281.188 77.5C282.768 77.5 283.618 78.34 283.618 79.99V80.47H279.618C279.658 81.78 280.098 82.34 281.188 82.34C281.998 82.34 282.508 82.04 282.688 81.38H283.538C283.438 82.45 282.538 83.1 281.188 83.1ZM279.638 79.79H282.788C282.738 78.73 282.218 78.25 281.198 78.25C280.198 78.25 279.738 78.71 279.638 79.79ZM284.867 85V77.6H285.677V78.39C285.977 77.83 286.617 77.5 287.477 77.5C288.917 77.5 289.797 78.46 289.797 80.27C289.797 82.06 288.927 83.1 287.447 83.1C286.657 83.1 286.037 82.81 285.727 82.31V85H284.867ZM285.717 80.3C285.717 81.7 286.247 82.34 287.317 82.34C288.397 82.34 288.907 81.68 288.907 80.28C288.907 78.91 288.397 78.26 287.317 78.26C286.237 78.26 285.717 78.93 285.717 80.3ZM293.309 83.1C291.639 83.1 290.779 82.14 290.779 80.3C290.779 78.46 291.639 77.5 293.309 77.5C294.969 77.5 295.839 78.46 295.839 80.3C295.839 82.14 294.969 83.1 293.309 83.1ZM291.669 80.3C291.669 81.72 292.169 82.34 293.309 82.34C294.449 82.34 294.949 81.72 294.949 80.3C294.949 78.88 294.449 78.26 293.309 78.26C292.169 78.26 291.669 78.88 291.669 80.3ZM298.994 83.1C297.494 83.1 296.774 82.52 296.754 81.29H297.614C297.644 82.02 298.064 82.34 298.984 82.34C299.884 82.34 300.334 82.06 300.334 81.52C300.334 81.12 300.094 80.92 299.444 80.77L298.284 80.51C297.394 80.31 296.944 79.82 296.944 79.04C296.944 78.06 297.674 77.5 298.974 77.5C300.264 77.5 301.014 78.09 301.024 79.18H300.164C300.084 78.55 299.714 78.26 298.984 78.26C298.244 78.26 297.834 78.53 297.834 79.01C297.834 79.38 298.074 79.59 298.664 79.73L299.924 80.02C300.804 80.22 301.224 80.7 301.224 81.49C301.224 82.55 300.464 83.1 298.994 83.1ZM302.426 83V77.6H303.286V83H302.426ZM302.426 76.6V75.5H303.286V76.6H302.426ZM306.699 83C305.709 83 305.389 82.53 305.389 81.67V78.35H304.389V77.6H305.389V76H306.239V77.6H307.589V78.35H306.239V81.56C306.239 81.99 306.329 82.25 306.939 82.25H307.599V83H306.699ZM311.576 83V77.6H312.436V78.51C312.566 78.17 312.936 77.53 313.916 77.53H314.426V78.33H314.046C312.996 78.33 312.436 79.01 312.436 79.92V83H311.576ZM315.742 83V75.5H320.842V76.3H316.692V78.81H320.442V79.62H316.692V82.2H320.932V83H315.742ZM324.509 83V76.3H322.039V75.5H327.929V76.3H325.459V83H324.509ZM329.238 83V75.5H330.188V78.77H334.028V75.5H334.978V83H334.028V79.57H330.188V83H329.238Z" fill="#30343A"/>
    <path d="M550.828 106.47C551.087 106.565 551.374 106.432 551.469 106.173L553.018 101.947C553.113 101.688 552.98 101.401 552.72 101.306C552.461 101.211 552.174 101.344 552.079 101.603L550.703 105.359L546.947 103.983C546.687 103.888 546.4 104.021 546.305 104.28C546.21 104.539 546.343 104.827 546.603 104.922L550.828 106.47ZM230.447 106.224C261.629 43.6807 326.561 11.135 391.274 10.5092C455.983 9.88342 520.39 41.1729 550.546 106.211L551.454 105.79C521.102 40.3305 456.289 8.88042 391.264 9.50924C326.244 10.138 260.93 42.8411 229.553 105.777L230.447 106.224Z" fill="#37404D" fill-opacity="0.44"/>
    <rect x="350" width="86" height="26" rx="13" fill="#F8F3FE"/>
    <path d="M360.896 17V16.19C360.596 16.76 359.956 17.1 359.086 17.1C357.646 17.1 356.766 16.14 356.766 14.33C356.766 12.54 357.636 11.5 359.116 11.5C359.916 11.5 360.536 11.8 360.846 12.31V9.5H361.706V17H360.896ZM357.656 14.32C357.656 15.69 358.166 16.34 359.246 16.34C360.326 16.34 360.846 15.67 360.846 14.3C360.846 12.9 360.316 12.26 359.246 12.26C358.166 12.26 357.656 12.92 357.656 14.32ZM365.417 17.1C363.787 17.1 362.987 16.15 362.987 14.3C362.987 12.45 363.777 11.5 365.417 11.5C366.997 11.5 367.847 12.34 367.847 13.99V14.47H363.847C363.887 15.78 364.327 16.34 365.417 16.34C366.227 16.34 366.737 16.04 366.917 15.38H367.767C367.667 16.45 366.767 17.1 365.417 17.1ZM363.867 13.79H367.017C366.967 12.73 366.447 12.25 365.427 12.25C364.427 12.25 363.967 12.71 363.867 13.79ZM369.097 19V11.6H369.907V12.39C370.207 11.83 370.847 11.5 371.707 11.5C373.147 11.5 374.027 12.46 374.027 14.27C374.027 16.06 373.157 17.1 371.677 17.1C370.887 17.1 370.267 16.81 369.957 16.31V19H369.097ZM369.947 14.3C369.947 15.7 370.477 16.34 371.547 16.34C372.627 16.34 373.137 15.68 373.137 14.28C373.137 12.91 372.627 12.26 371.547 12.26C370.467 12.26 369.947 12.93 369.947 14.3ZM377.539 17.1C375.869 17.1 375.009 16.14 375.009 14.3C375.009 12.46 375.869 11.5 377.539 11.5C379.199 11.5 380.069 12.46 380.069 14.3C380.069 16.14 379.199 17.1 377.539 17.1ZM375.899 14.3C375.899 15.72 376.399 16.34 377.539 16.34C378.679 16.34 379.179 15.72 379.179 14.3C379.179 12.88 378.679 12.26 377.539 12.26C376.399 12.26 375.899 12.88 375.899 14.3ZM383.224 17.1C381.724 17.1 381.004 16.52 380.984 15.29H381.844C381.874 16.02 382.294 16.34 383.214 16.34C384.114 16.34 384.564 16.06 384.564 15.52C384.564 15.12 384.324 14.92 383.674 14.77L382.514 14.51C381.624 14.31 381.174 13.82 381.174 13.04C381.174 12.06 381.904 11.5 383.204 11.5C384.494 11.5 385.244 12.09 385.254 13.18H384.394C384.314 12.55 383.944 12.26 383.214 12.26C382.474 12.26 382.064 12.53 382.064 13.01C382.064 13.38 382.304 13.59 382.894 13.73L384.154 14.02C385.034 14.22 385.454 14.7 385.454 15.49C385.454 16.55 384.694 17.1 383.224 17.1ZM386.656 17V11.6H387.516V17H386.656ZM386.656 10.6V9.5H387.516V10.6H386.656ZM390.928 17C389.938 17 389.618 16.53 389.618 15.67V12.35H388.618V11.6H389.618V10H390.468V11.6H391.818V12.35H390.468V15.56C390.468 15.99 390.558 16.25 391.168 16.25H391.828V17H390.928ZM396.406 10.84C396.406 9.97 396.736 9.5 397.726 9.5H398.746V10.25H397.856C397.356 10.25 397.266 10.51 397.266 10.95V11.6H398.706V12.35H397.266V17H396.406V12.35H395.386V11.6H396.406V10.84ZM399.81 17V11.6H400.67V12.51C400.8 12.17 401.17 11.53 402.15 11.53H402.66V12.33H402.28C401.23 12.33 400.67 13.01 400.67 13.92V17H399.81ZM403.305 17L405.275 14.19L403.475 11.6H404.475L405.795 13.56L407.125 11.6H408.115L406.275 14.19L408.225 17H407.225L405.755 14.82L404.295 17H403.305ZM409.512 17V9.5H414.612V10.3H410.462V12.81H414.212V13.62H410.462V16.2H414.702V17H409.512ZM418.28 17V10.3H415.81V9.5H421.7V10.3H419.23V17H418.28ZM423.008 17V9.5H423.958V12.77H427.798V9.5H428.748V17H427.798V13.57H423.958V17H423.008Z" fill="#30343A"/>
    <g clip-path="url(#clip1_10575_47481)">
        <rect x="168" y="120" width="163" height="120" rx="24" fill="#A55EFF"/>
        <path d="M222.022 172H224.462V184.94H232.042V187H222.022V172ZM238.451 187.2C237.331 187.2 236.384 186.993 235.611 186.58C234.838 186.153 234.251 185.52 233.851 184.68C233.451 183.84 233.251 182.813 233.251 181.6C233.251 180.387 233.451 179.36 233.851 178.52C234.251 177.68 234.838 177.053 235.611 176.64C236.384 176.213 237.331 176 238.451 176C239.571 176 240.518 176.213 241.291 176.64C242.064 177.053 242.651 177.68 243.051 178.52C243.451 179.36 243.651 180.387 243.651 181.6C243.651 182.813 243.451 183.84 243.051 184.68C242.651 185.52 242.064 186.153 241.291 186.58C240.518 186.993 239.571 187.2 238.451 187.2ZM238.451 185.36C239.118 185.36 239.664 185.227 240.091 184.96C240.518 184.693 240.831 184.287 241.031 183.74C241.244 183.193 241.351 182.48 241.351 181.6C241.351 180.72 241.244 180.007 241.031 179.46C240.831 178.913 240.518 178.507 240.091 178.24C239.664 177.973 239.118 177.84 238.451 177.84C237.771 177.84 237.218 177.973 236.791 178.24C236.378 178.507 236.064 178.913 235.851 179.46C235.651 180.007 235.551 180.72 235.551 181.6C235.551 182.48 235.651 183.193 235.851 183.74C236.064 184.287 236.384 184.693 236.811 184.96C237.238 185.227 237.784 185.36 238.451 185.36ZM250.44 187.2C249.333 187.2 248.406 186.993 247.66 186.58C246.913 186.153 246.346 185.527 245.96 184.7C245.586 183.86 245.4 182.827 245.4 181.6C245.4 180.373 245.586 179.347 245.96 178.52C246.346 177.693 246.906 177.067 247.64 176.64C248.386 176.213 249.313 176 250.42 176C251.42 176 252.28 176.167 253 176.5C253.72 176.82 254.273 177.293 254.66 177.92C255.06 178.533 255.26 179.267 255.26 180.12H253.04C252.986 179.36 252.74 178.793 252.3 178.42C251.873 178.033 251.253 177.84 250.44 177.84C249.786 177.84 249.26 177.967 248.86 178.22C248.46 178.473 248.166 178.873 247.98 179.42C247.793 179.967 247.7 180.687 247.7 181.58C247.7 182.487 247.786 183.213 247.96 183.76C248.146 184.307 248.44 184.713 248.84 184.98C249.253 185.233 249.78 185.36 250.42 185.36C250.966 185.36 251.42 185.28 251.78 185.12C252.153 184.947 252.44 184.693 252.64 184.36C252.853 184.013 252.993 183.58 253.06 183.06H255.28C255.253 183.927 255.04 184.673 254.64 185.3C254.24 185.913 253.68 186.387 252.96 186.72C252.253 187.04 251.413 187.2 250.44 187.2ZM264.242 176.2H266.502V187H264.242V176.2ZM259.582 183.12C259.582 183.787 259.748 184.32 260.082 184.72C260.415 185.107 260.948 185.3 261.682 185.3C262.268 185.3 262.748 185.173 263.122 184.92C263.508 184.667 263.788 184.32 263.962 183.88C264.148 183.44 264.242 182.92 264.242 182.32L264.462 185.02C264.128 185.767 263.662 186.32 263.062 186.68C262.462 187.027 261.755 187.2 260.942 187.2C260.182 187.2 259.528 187.053 258.982 186.76C258.448 186.467 258.035 186.033 257.742 185.46C257.462 184.887 257.322 184.18 257.322 183.34V176.2H259.582V183.12ZM273.319 187.2C272.279 187.2 271.412 187.067 270.719 186.8C270.039 186.533 269.526 186.133 269.179 185.6C268.846 185.067 268.672 184.387 268.659 183.56H270.839C270.866 184.013 270.966 184.38 271.139 184.66C271.312 184.927 271.572 185.127 271.919 185.26C272.266 185.393 272.712 185.46 273.259 185.46C273.792 185.46 274.239 185.407 274.599 185.3C274.959 185.193 275.226 185.027 275.399 184.8C275.572 184.573 275.659 184.3 275.659 183.98C275.659 183.74 275.606 183.54 275.499 183.38C275.406 183.207 275.239 183.067 274.999 182.96C274.759 182.84 274.439 182.733 274.039 182.64L271.739 182.14C270.819 181.927 270.132 181.58 269.679 181.1C269.226 180.607 268.999 179.967 268.999 179.18C268.999 178.513 269.166 177.94 269.499 177.46C269.832 176.98 270.319 176.62 270.959 176.38C271.599 176.127 272.372 176 273.279 176C274.186 176 274.959 176.133 275.599 176.4C276.239 176.653 276.726 177.033 277.059 177.54C277.406 178.047 277.579 178.66 277.579 179.38H275.419C275.366 179.007 275.259 178.7 275.099 178.46C274.939 178.22 274.712 178.04 274.419 177.92C274.126 177.8 273.766 177.74 273.339 177.74C272.899 177.74 272.526 177.793 272.219 177.9C271.926 178.007 271.699 178.16 271.539 178.36C271.379 178.56 271.299 178.8 271.299 179.08C271.299 179.307 271.352 179.5 271.459 179.66C271.566 179.82 271.726 179.96 271.939 180.08C272.152 180.187 272.439 180.28 272.799 180.36L275.279 180.92C275.892 181.053 276.392 181.247 276.779 181.5C277.179 181.753 277.472 182.08 277.659 182.48C277.859 182.867 277.959 183.333 277.959 183.88C277.959 184.613 277.786 185.227 277.439 185.72C277.092 186.213 276.572 186.587 275.879 186.84C275.186 187.08 274.332 187.2 273.319 187.2Z" fill="white"/>
    </g>
    <rect x="336" y="120" width="163" height="120" rx="24" fill="#E5D1FC"/>
    <path d="M372.145 131.6H373.045V137H372.145V131.6ZM372.145 129.5H373.045V130.61H372.145V129.5ZM374.547 131.6H375.397V132.63H375.447V137H374.547V131.6ZM378.087 133.45C378.087 133.103 377.994 132.823 377.807 132.61C377.627 132.39 377.327 132.28 376.907 132.28C376.574 132.28 376.297 132.353 376.077 132.5C375.857 132.64 375.697 132.837 375.597 133.09C375.497 133.337 375.447 133.62 375.447 133.94L375.317 132.59C375.497 132.21 375.74 131.933 376.047 131.76C376.354 131.587 376.717 131.5 377.137 131.5C377.524 131.5 377.857 131.573 378.137 131.72C378.417 131.86 378.627 132.07 378.767 132.35C378.914 132.63 378.987 132.98 378.987 133.4V137H378.087V133.45ZM382.586 137.1C382.04 137.1 381.586 136.997 381.226 136.79C380.866 136.583 380.593 136.273 380.406 135.86C380.226 135.44 380.136 134.92 380.136 134.3C380.136 133.68 380.23 133.163 380.416 132.75C380.603 132.337 380.876 132.027 381.236 131.82C381.596 131.607 382.043 131.5 382.576 131.5C383.07 131.5 383.49 131.58 383.836 131.74C384.183 131.893 384.453 132.123 384.646 132.43C384.84 132.73 384.936 133.087 384.936 133.5H384.026C384 133.1 383.863 132.797 383.616 132.59C383.376 132.383 383.033 132.28 382.586 132.28C382.22 132.28 381.926 132.35 381.706 132.49C381.486 132.623 381.323 132.837 381.216 133.13C381.116 133.423 381.066 133.81 381.066 134.29C381.066 134.777 381.116 135.167 381.216 135.46C381.323 135.753 381.486 135.97 381.706 136.11C381.926 136.25 382.22 136.32 382.586 136.32C382.886 136.32 383.136 136.277 383.336 136.19C383.543 136.097 383.703 135.96 383.816 135.78C383.93 135.6 384.006 135.37 384.046 135.09H384.956C384.936 135.503 384.83 135.863 384.636 136.17C384.443 136.477 384.17 136.71 383.816 136.87C383.47 137.023 383.06 137.1 382.586 137.1ZM388.318 137.1C387.778 137.1 387.328 136.997 386.968 136.79C386.608 136.577 386.335 136.263 386.148 135.85C385.968 135.437 385.878 134.92 385.878 134.3C385.878 133.68 385.968 133.163 386.148 132.75C386.328 132.337 386.598 132.027 386.958 131.82C387.318 131.607 387.772 131.5 388.318 131.5C389.118 131.5 389.725 131.71 390.138 132.13C390.552 132.55 390.758 133.17 390.758 133.99V134.48H386.418V133.79H389.898C389.872 133.27 389.728 132.887 389.468 132.64C389.215 132.393 388.835 132.27 388.328 132.27C387.955 132.27 387.655 132.34 387.428 132.48C387.202 132.613 387.035 132.83 386.928 133.13C386.828 133.423 386.778 133.81 386.778 134.29C386.778 134.77 386.828 135.16 386.928 135.46C387.028 135.76 387.192 135.98 387.418 136.12C387.645 136.253 387.945 136.32 388.318 136.32C388.725 136.32 389.052 136.243 389.298 136.09C389.545 135.937 389.712 135.7 389.798 135.38H390.688C390.648 135.733 390.528 136.04 390.328 136.3C390.128 136.56 389.855 136.76 389.508 136.9C389.168 137.033 388.772 137.1 388.318 137.1ZM391.998 131.6H392.848V132.63H392.898V137H391.998V131.6ZM395.538 133.45C395.538 133.103 395.445 132.823 395.258 132.61C395.078 132.39 394.778 132.28 394.358 132.28C394.025 132.28 393.748 132.353 393.528 132.5C393.308 132.64 393.148 132.837 393.048 133.09C392.948 133.337 392.898 133.62 392.898 133.94L392.768 132.59C392.948 132.21 393.191 131.933 393.498 131.76C393.805 131.587 394.168 131.5 394.588 131.5C394.975 131.5 395.308 131.573 395.588 131.72C395.868 131.86 396.078 132.07 396.218 132.35C396.365 132.63 396.438 132.98 396.438 133.4V137H395.538V133.45ZM399.767 137C399.441 137 399.181 136.95 398.987 136.85C398.794 136.75 398.654 136.603 398.567 136.41C398.487 136.21 398.447 135.957 398.447 135.65V130H399.337V135.54C399.337 135.7 399.354 135.827 399.387 135.92C399.421 136.013 399.487 136.087 399.587 136.14C399.694 136.193 399.841 136.22 400.027 136.22H400.687V137H399.767ZM397.447 131.6H400.677V132.37H397.447V131.6ZM401.881 131.6H402.781V137H401.881V131.6ZM401.881 129.5H402.781V130.61H401.881V129.5ZM403.853 131.6H404.823L406.263 136.02H406.323L407.793 131.6H408.743L406.813 137H405.753L403.853 131.6ZM411.678 137.1C411.138 137.1 410.688 136.997 410.328 136.79C409.968 136.577 409.694 136.263 409.508 135.85C409.328 135.437 409.238 134.92 409.238 134.3C409.238 133.68 409.328 133.163 409.508 132.75C409.688 132.337 409.958 132.027 410.318 131.82C410.678 131.607 411.131 131.5 411.678 131.5C412.478 131.5 413.084 131.71 413.498 132.13C413.911 132.55 414.118 133.17 414.118 133.99V134.48H409.778V133.79H413.258C413.231 133.27 413.088 132.887 412.828 132.64C412.574 132.393 412.194 132.27 411.688 132.27C411.314 132.27 411.014 132.34 410.788 132.48C410.561 132.613 410.394 132.83 410.288 133.13C410.188 133.423 410.138 133.81 410.138 134.29C410.138 134.77 410.188 135.16 410.288 135.46C410.388 135.76 410.551 135.98 410.778 136.12C411.004 136.253 411.304 136.32 411.678 136.32C412.084 136.32 412.411 136.243 412.658 136.09C412.904 135.937 413.071 135.7 413.158 135.38H414.048C414.008 135.733 413.888 136.04 413.688 136.3C413.488 136.56 413.214 136.76 412.868 136.9C412.528 137.033 412.131 137.1 411.678 137.1ZM417.287 137.1C416.781 137.1 416.361 137.037 416.027 136.91C415.701 136.777 415.454 136.577 415.287 136.31C415.121 136.043 415.034 135.703 415.027 135.29H415.927C415.941 135.53 415.994 135.727 416.087 135.88C416.181 136.033 416.324 136.147 416.517 136.22C416.717 136.287 416.967 136.32 417.267 136.32C417.567 136.32 417.814 136.293 418.007 136.24C418.207 136.18 418.354 136.09 418.447 135.97C418.547 135.843 418.597 135.693 418.597 135.52C418.597 135.387 418.567 135.273 418.507 135.18C418.454 135.087 418.364 135.01 418.237 134.95C418.111 134.89 417.937 134.833 417.717 134.78L416.567 134.52C416.114 134.42 415.774 134.247 415.547 134C415.327 133.753 415.217 133.437 415.217 133.05C415.217 132.723 415.297 132.443 415.457 132.21C415.617 131.977 415.847 131.8 416.147 131.68C416.454 131.56 416.827 131.5 417.267 131.5C417.694 131.5 418.061 131.567 418.367 131.7C418.681 131.827 418.917 132.017 419.077 132.27C419.244 132.517 419.327 132.82 419.327 133.18H418.437C418.411 132.973 418.351 132.803 418.257 132.67C418.171 132.537 418.044 132.44 417.877 132.38C417.717 132.313 417.517 132.28 417.277 132.28C417.037 132.28 416.834 132.307 416.667 132.36C416.501 132.413 416.371 132.497 416.277 132.61C416.191 132.723 416.147 132.86 416.147 133.02C416.147 133.14 416.174 133.247 416.227 133.34C416.287 133.427 416.374 133.5 416.487 133.56C416.607 133.62 416.767 133.673 416.967 133.72L418.217 134.01C418.517 134.077 418.764 134.177 418.957 134.31C419.151 134.437 419.294 134.597 419.387 134.79C419.481 134.983 419.527 135.213 419.527 135.48C419.527 135.833 419.444 136.133 419.277 136.38C419.111 136.62 418.857 136.8 418.517 136.92C418.184 137.04 417.774 137.1 417.287 137.1ZM423.443 131.6H424.293V132.68L424.333 132.7V132.8V135.91H424.343V139H423.443V131.6ZM426.053 137.1C425.607 137.1 425.223 137.01 424.903 136.83C424.583 136.65 424.36 136.403 424.233 136.09H424.133V132.56H424.213C424.347 132.227 424.577 131.967 424.903 131.78C425.23 131.593 425.623 131.5 426.083 131.5C426.563 131.5 426.977 131.607 427.323 131.82C427.67 132.027 427.933 132.34 428.113 132.76C428.3 133.173 428.393 133.677 428.393 134.27C428.393 135.163 428.187 135.86 427.773 136.36C427.367 136.853 426.793 137.1 426.053 137.1ZM425.903 136.31C426.257 136.31 426.547 136.237 426.773 136.09C427.007 135.943 427.18 135.72 427.293 135.42C427.413 135.12 427.473 134.74 427.473 134.28C427.473 133.827 427.413 133.453 427.293 133.16C427.18 132.867 427.007 132.65 426.773 132.51C426.547 132.363 426.257 132.29 425.903 132.29C425.55 132.29 425.257 132.363 425.023 132.51C424.79 132.657 424.617 132.88 424.503 133.18C424.39 133.473 424.333 133.847 424.333 134.3C424.333 134.987 424.46 135.493 424.713 135.82C424.973 136.147 425.37 136.31 425.903 136.31ZM429.635 131.6H430.535V132.91L430.485 132.64C430.531 132.493 430.605 132.34 430.705 132.18C430.811 132.013 430.971 131.863 431.185 131.73C431.405 131.597 431.681 131.53 432.015 131.53H432.525V132.36H432.125C431.791 132.36 431.505 132.43 431.265 132.57C431.025 132.703 430.841 132.89 430.715 133.13C430.595 133.363 430.535 133.63 430.535 133.93V137H429.635V131.6ZM435.567 137.1C435.014 137.1 434.547 136.997 434.167 136.79C433.794 136.577 433.51 136.263 433.317 135.85C433.124 135.43 433.027 134.913 433.027 134.3C433.027 133.687 433.124 133.173 433.317 132.76C433.51 132.34 433.794 132.027 434.167 131.82C434.547 131.607 435.014 131.5 435.567 131.5C436.12 131.5 436.587 131.607 436.967 131.82C437.347 132.027 437.63 132.34 437.817 132.76C438.01 133.173 438.107 133.687 438.107 134.3C438.107 134.913 438.01 135.43 437.817 135.85C437.63 136.263 437.347 136.577 436.967 136.79C436.587 136.997 436.12 137.1 435.567 137.1ZM435.567 136.32C435.94 136.32 436.244 136.25 436.477 136.11C436.717 135.963 436.894 135.743 437.007 135.45C437.12 135.15 437.177 134.767 437.177 134.3C437.177 133.833 437.12 133.453 437.007 133.16C436.894 132.86 436.717 132.64 436.477 132.5C436.244 132.353 435.94 132.28 435.567 132.28C435.194 132.28 434.89 132.353 434.657 132.5C434.424 132.64 434.247 132.86 434.127 133.16C434.014 133.453 433.957 133.833 433.957 134.3C433.957 134.767 434.014 135.15 434.127 135.45C434.247 135.743 434.424 135.963 434.657 136.11C434.89 136.25 435.194 136.32 435.567 136.32ZM441.115 137C440.788 137 440.528 136.95 440.335 136.85C440.142 136.75 440.002 136.603 439.915 136.41C439.835 136.21 439.795 135.957 439.795 135.65V130H440.685V135.54C440.685 135.7 440.702 135.827 440.735 135.92C440.768 136.013 440.835 136.087 440.935 136.14C441.042 136.193 441.188 136.22 441.375 136.22H442.035V137H441.115ZM438.795 131.6H442.025V132.37H438.795V131.6ZM445.333 137.1C444.779 137.1 444.313 136.997 443.933 136.79C443.559 136.577 443.276 136.263 443.083 135.85C442.889 135.43 442.793 134.913 442.793 134.3C442.793 133.687 442.889 133.173 443.083 132.76C443.276 132.34 443.559 132.027 443.933 131.82C444.313 131.607 444.779 131.5 445.333 131.5C445.886 131.5 446.353 131.607 446.733 131.82C447.113 132.027 447.396 132.34 447.583 132.76C447.776 133.173 447.873 133.687 447.873 134.3C447.873 134.913 447.776 135.43 447.583 135.85C447.396 136.263 447.113 136.577 446.733 136.79C446.353 136.997 445.886 137.1 445.333 137.1ZM445.333 136.32C445.706 136.32 446.009 136.25 446.243 136.11C446.483 135.963 446.659 135.743 446.773 135.45C446.886 135.15 446.943 134.767 446.943 134.3C446.943 133.833 446.886 133.453 446.773 133.16C446.659 132.86 446.483 132.64 446.243 132.5C446.009 132.353 445.706 132.28 445.333 132.28C444.959 132.28 444.656 132.353 444.423 132.5C444.189 132.64 444.013 132.86 443.893 133.16C443.779 133.453 443.723 133.833 443.723 134.3C443.723 134.767 443.779 135.15 443.893 135.45C444.013 135.743 444.189 135.963 444.423 136.11C444.656 136.25 444.959 136.32 445.333 136.32ZM451.287 137.1C450.741 137.1 450.287 136.997 449.927 136.79C449.567 136.583 449.294 136.273 449.107 135.86C448.927 135.44 448.837 134.92 448.837 134.3C448.837 133.68 448.931 133.163 449.117 132.75C449.304 132.337 449.577 132.027 449.937 131.82C450.297 131.607 450.744 131.5 451.277 131.5C451.771 131.5 452.191 131.58 452.537 131.74C452.884 131.893 453.154 132.123 453.347 132.43C453.541 132.73 453.637 133.087 453.637 133.5H452.727C452.701 133.1 452.564 132.797 452.317 132.59C452.077 132.383 451.734 132.28 451.287 132.28C450.921 132.28 450.627 132.35 450.407 132.49C450.187 132.623 450.024 132.837 449.917 133.13C449.817 133.423 449.767 133.81 449.767 134.29C449.767 134.777 449.817 135.167 449.917 135.46C450.024 135.753 450.187 135.97 450.407 136.11C450.627 136.25 450.921 136.32 451.287 136.32C451.587 136.32 451.837 136.277 452.037 136.19C452.244 136.097 452.404 135.96 452.517 135.78C452.631 135.6 452.707 135.37 452.747 135.09H453.657C453.637 135.503 453.531 135.863 453.337 136.17C453.144 136.477 452.871 136.71 452.517 136.87C452.171 137.023 451.761 137.1 451.287 137.1ZM457.12 137.1C456.566 137.1 456.1 136.997 455.72 136.79C455.346 136.577 455.063 136.263 454.87 135.85C454.676 135.43 454.58 134.913 454.58 134.3C454.58 133.687 454.676 133.173 454.87 132.76C455.063 132.34 455.346 132.027 455.72 131.82C456.1 131.607 456.566 131.5 457.12 131.5C457.673 131.5 458.14 131.607 458.52 131.82C458.9 132.027 459.183 132.34 459.37 132.76C459.563 133.173 459.66 133.687 459.66 134.3C459.66 134.913 459.563 135.43 459.37 135.85C459.183 136.263 458.9 136.577 458.52 136.79C458.14 136.997 457.673 137.1 457.12 137.1ZM457.12 136.32C457.493 136.32 457.796 136.25 458.03 136.11C458.27 135.963 458.446 135.743 458.56 135.45C458.673 135.15 458.73 134.767 458.73 134.3C458.73 133.833 458.673 133.453 458.56 133.16C458.446 132.86 458.27 132.64 458.03 132.5C457.796 132.353 457.493 132.28 457.12 132.28C456.746 132.28 456.443 132.353 456.21 132.5C455.976 132.64 455.8 132.86 455.68 133.16C455.566 133.453 455.51 133.833 455.51 134.3C455.51 134.767 455.566 135.15 455.68 135.45C455.8 135.743 455.976 135.963 456.21 136.11C456.443 136.25 456.746 136.32 457.12 136.32ZM460.925 129.5H461.825V137H460.925V129.5Z" fill="#30343A"/>
    <g clip-path="url(#clip2_10575_47481)">
        <path d="M390.5 190C393.152 190 395.696 188.946 397.571 187.071C399.446 185.196 400.5 182.652 400.5 180C400.5 177.348 399.446 174.804 397.571 172.929C395.696 171.054 393.152 170 390.5 170V180V190Z" fill="#30343A"/>
        <path d="M389.192 170.523H387.453V189.48H389.192V170.523Z" fill="#30343A"/>
        <path d="M382.669 174.609H382.234V185.392H382.669V174.609Z" fill="#30343A"/>
        <path d="M385.713 171.828H384.844V188.176H385.713V171.828Z" fill="#30343A"/>
    </g>
    <path d="M413.335 181.3H419.855L420.475 183.26H412.675L413.335 181.3ZM415.275 172H418.015L423.475 187H420.835L416.715 174.58H416.515L412.315 187H409.795L415.275 172ZM431.8 176.2H434.06V187H431.8V176.2ZM427.14 183.12C427.14 183.787 427.307 184.32 427.64 184.72C427.973 185.107 428.507 185.3 429.24 185.3C429.827 185.3 430.307 185.173 430.68 184.92C431.067 184.667 431.347 184.32 431.52 183.88C431.707 183.44 431.8 182.92 431.8 182.32L432.02 185.02C431.687 185.767 431.22 186.32 430.62 186.68C430.02 187.027 429.313 187.2 428.5 187.2C427.74 187.2 427.087 187.053 426.54 186.76C426.007 186.467 425.593 186.033 425.3 185.46C425.02 184.887 424.88 184.18 424.88 183.34V176.2H427.14V183.12ZM436.818 176.2H439.058V179L438.918 178.52C439.011 178.12 439.171 177.74 439.398 177.38C439.624 177.007 439.951 176.693 440.378 176.44C440.818 176.173 441.351 176.04 441.978 176.04H442.998V178.06H442.018C441.404 178.06 440.871 178.187 440.418 178.44C439.978 178.693 439.644 179.047 439.418 179.5C439.191 179.94 439.078 180.453 439.078 181.04V187H436.818V176.2ZM448.18 187.2C447.407 187.2 446.74 187.08 446.18 186.84C445.62 186.6 445.193 186.247 444.9 185.78C444.607 185.313 444.46 184.76 444.46 184.12C444.46 183.48 444.593 182.927 444.86 182.46C445.14 181.993 445.54 181.62 446.06 181.34C446.593 181.06 447.233 180.88 447.98 180.8L452 180.42V181.9L448.64 182.28C448 182.347 447.52 182.52 447.2 182.8C446.88 183.067 446.72 183.433 446.72 183.9C446.72 184.42 446.9 184.813 447.26 185.08C447.62 185.333 448.133 185.46 448.8 185.46C449.413 185.46 449.933 185.353 450.36 185.14C450.8 184.913 451.133 184.593 451.36 184.18C451.587 183.767 451.7 183.273 451.7 182.7V179.76C451.7 179.28 451.613 178.9 451.44 178.62C451.28 178.327 451.027 178.107 450.68 177.96C450.347 177.813 449.913 177.74 449.38 177.74C448.86 177.74 448.433 177.807 448.1 177.94C447.78 178.073 447.54 178.28 447.38 178.56C447.22 178.84 447.113 179.213 447.06 179.68H444.86C444.873 178.88 445.06 178.207 445.42 177.66C445.78 177.113 446.287 176.7 446.94 176.42C447.607 176.14 448.42 176 449.38 176C450.34 176 451.16 176.14 451.84 176.42C452.52 176.687 453.033 177.087 453.38 177.62C453.74 178.14 453.92 178.767 453.92 179.5V187H451.8V184.96L452.36 184.08C452.227 184.747 451.973 185.313 451.6 185.78C451.24 186.233 450.767 186.587 450.18 186.84C449.607 187.08 448.94 187.2 448.18 187.2Z" fill="#30343A"/>
    <rect x="504" y="120" width="163" height="120" rx="24" fill="#E5D1FC"/>
    <path d="M544.35 137.1C542.74 137.1 541.92 136.17 541.92 134.3C541.92 132.44 542.75 131.5 544.35 131.5C545.81 131.5 546.68 132.24 546.69 133.49H545.82C545.77 132.67 545.27 132.26 544.35 132.26C543.25 132.26 542.81 132.84 542.81 134.29C542.81 135.75 543.25 136.34 544.35 136.34C545.26 136.34 545.73 135.94 545.84 135.1H546.71C546.67 136.36 545.78 137.1 544.35 137.1ZM547.922 137V131.6H548.782V132.51C548.912 132.17 549.282 131.53 550.262 131.53H550.772V132.33H550.392C549.342 132.33 548.782 133.01 548.782 133.92V137H547.922ZM553.776 137.1C552.106 137.1 551.246 136.14 551.246 134.3C551.246 132.46 552.106 131.5 553.776 131.5C555.436 131.5 556.306 132.46 556.306 134.3C556.306 136.14 555.436 137.1 553.776 137.1ZM552.136 134.3C552.136 135.72 552.636 136.34 553.776 136.34C554.916 136.34 555.416 135.72 555.416 134.3C555.416 132.88 554.916 132.26 553.776 132.26C552.636 132.26 552.136 132.88 552.136 134.3ZM559.461 137.1C557.961 137.1 557.241 136.52 557.221 135.29H558.081C558.111 136.02 558.531 136.34 559.451 136.34C560.351 136.34 560.801 136.06 560.801 135.52C560.801 135.12 560.561 134.92 559.911 134.77L558.751 134.51C557.861 134.31 557.411 133.82 557.411 133.04C557.411 132.06 558.141 131.5 559.441 131.5C560.731 131.5 561.481 132.09 561.491 133.18H560.631C560.551 132.55 560.181 132.26 559.451 132.26C558.711 132.26 558.301 132.53 558.301 133.01C558.301 133.38 558.541 133.59 559.131 133.73L560.391 134.02C561.271 134.22 561.691 134.7 561.691 135.49C561.691 136.55 560.931 137.1 559.461 137.1ZM564.803 137.1C563.303 137.1 562.583 136.52 562.563 135.29H563.423C563.453 136.02 563.873 136.34 564.793 136.34C565.693 136.34 566.143 136.06 566.143 135.52C566.143 135.12 565.903 134.92 565.253 134.77L564.093 134.51C563.203 134.31 562.753 133.82 562.753 133.04C562.753 132.06 563.483 131.5 564.783 131.5C566.073 131.5 566.823 132.09 566.833 133.18H565.973C565.893 132.55 565.523 132.26 564.793 132.26C564.053 132.26 563.643 132.53 563.643 133.01C563.643 133.38 563.883 133.59 564.473 133.73L565.733 134.02C566.613 134.22 567.033 134.7 567.033 135.49C567.033 136.55 566.273 137.1 564.803 137.1ZM568.125 134.49V133.75H571.025V134.49H568.125ZM574.594 137.1C572.984 137.1 572.164 136.17 572.164 134.3C572.164 132.44 572.994 131.5 574.594 131.5C576.054 131.5 576.924 132.24 576.934 133.49H576.064C576.014 132.67 575.514 132.26 574.594 132.26C573.494 132.26 573.054 132.84 573.054 134.29C573.054 135.75 573.494 136.34 574.594 136.34C575.504 136.34 575.974 135.94 576.084 135.1H576.954C576.914 136.36 576.024 137.1 574.594 137.1ZM578.196 137V129.5H579.056V132.35C579.446 131.74 580.036 131.5 580.756 131.5C581.916 131.5 582.616 132.14 582.616 133.39V137H581.756V133.44C581.756 132.8 581.466 132.25 580.546 132.25C579.476 132.25 579.056 133.01 579.056 133.94V137H578.196ZM585.605 137.1C584.415 137.1 583.725 136.54 583.725 135.57C583.725 134.63 584.355 134.03 585.445 133.93L587.405 133.74V133.4C587.405 132.59 587.015 132.25 586.095 132.25C585.225 132.25 584.855 132.55 584.785 133.33H583.935C583.965 132.13 584.715 131.5 586.095 131.5C587.475 131.5 588.255 132.13 588.255 133.23V137H587.455V136.24C587.105 136.79 586.465 137.1 585.605 137.1ZM584.615 135.49C584.615 136.07 585.045 136.36 585.785 136.36C586.815 136.36 587.405 135.79 587.405 134.88V134.4L585.685 134.58C584.975 134.66 584.615 134.96 584.615 135.49ZM589.69 137V131.6H590.55V137H589.69ZM589.69 130.6V129.5H590.55V130.6H589.69ZM592.073 137V131.6H592.883V132.44C593.273 131.76 593.882 131.5 594.633 131.5C595.793 131.5 596.493 132.14 596.493 133.39V137H595.633V133.44C595.633 132.8 595.343 132.25 594.423 132.25C593.353 132.25 592.933 133.01 592.933 133.94V137H592.073ZM600.686 137V129.5H601.546V132.3C601.866 131.8 602.486 131.5 603.296 131.5C604.736 131.5 605.616 132.46 605.616 134.27C605.616 136.06 604.746 137.1 603.266 137.1C602.426 137.1 601.786 136.77 601.496 136.22V137H600.686ZM601.536 134.3C601.536 135.7 602.066 136.34 603.136 136.34C604.216 136.34 604.726 135.68 604.726 134.28C604.726 132.91 604.216 132.26 603.136 132.26C602.056 132.26 601.536 132.93 601.536 134.3ZM606.867 137V131.6H607.727V132.51C607.857 132.17 608.227 131.53 609.207 131.53H609.717V132.33H609.337C608.287 132.33 607.727 133.01 607.727 133.92V137H606.867ZM610.813 137V131.6H611.673V137H610.813ZM610.813 130.6V129.5H611.673V130.6H610.813ZM617.056 137V136.19C616.756 136.76 616.116 137.1 615.246 137.1C613.806 137.1 612.926 136.14 612.926 134.33C612.926 132.54 613.796 131.5 615.276 131.5C616.076 131.5 616.696 131.8 617.006 132.31V129.5H617.866V137H617.056ZM613.816 134.32C613.816 135.69 614.326 136.34 615.406 136.34C616.486 136.34 617.006 135.67 617.006 134.3C617.006 132.9 616.476 132.26 615.406 132.26C614.326 132.26 613.816 132.92 613.816 134.32ZM621.666 139.09C620.176 139.09 619.396 138.49 619.386 137.34H620.226C620.256 138.01 620.726 138.33 621.666 138.33C622.646 138.33 623.116 137.98 623.116 137.26V136.06C622.806 136.59 622.186 136.9 621.406 136.9C619.996 136.9 619.146 135.89 619.146 134.21C619.146 132.52 620.016 131.5 621.436 131.5C622.236 131.5 622.876 131.84 623.156 132.4V131.6H623.966V137.27C623.966 138.46 623.176 139.09 621.666 139.09ZM620.036 134.21C620.036 135.49 620.546 136.14 621.556 136.14C622.576 136.14 623.106 135.47 623.106 134.2C623.106 132.91 622.586 132.26 621.566 132.26C620.546 132.26 620.036 132.91 620.036 134.21ZM627.65 137.1C626.02 137.1 625.22 136.15 625.22 134.3C625.22 132.45 626.01 131.5 627.65 131.5C629.23 131.5 630.08 132.34 630.08 133.99V134.47H626.08C626.12 135.78 626.56 136.34 627.65 136.34C628.46 136.34 628.97 136.04 629.15 135.38H630C629.9 136.45 629 137.1 627.65 137.1ZM626.1 133.79H629.25C629.2 132.73 628.68 132.25 627.66 132.25C626.66 132.25 626.2 132.71 626.1 133.79Z" fill="#30343A"/>
    <g clip-path="url(#clip3_10575_47481)">
        <path fill-rule="evenodd" clip-rule="evenodd" d="M548.5 170C554.023 170 558.5 174.477 558.5 180C558.5 185.523 554.023 190 548.5 190C542.977 190 538.5 185.523 538.5 180C538.5 174.477 542.977 170 548.5 170ZM543.818 174.288L542.844 175.263L546.697 179.116C546.791 178.939 546.913 178.772 547.062 178.623C547.255 178.43 547.477 178.283 547.713 178.183L543.818 174.288ZM542.786 184.738L546.624 180.9C546.724 181.135 546.871 181.355 547.062 181.547C547.213 181.697 547.381 181.819 547.559 181.914L543.761 185.712L542.786 184.738ZM553.239 185.658L549.493 181.912C549.67 181.818 549.837 181.696 549.986 181.547C550.179 181.354 550.326 181.132 550.426 180.896L554.214 184.683L553.239 185.658ZM554.156 175.317L550.353 179.12C550.259 178.941 550.136 178.773 549.986 178.623C549.794 178.431 549.574 178.285 549.34 178.184L553.181 174.343L554.156 175.317Z" fill="#30343A"/>
    </g>
    <path d="M571.054 181.3H577.574L578.194 183.26H570.394L571.054 181.3ZM572.994 172H575.734L581.194 187H578.554L574.434 174.58H574.234L570.034 187H567.514L572.994 172ZM587.182 187.2C586.075 187.2 585.148 186.993 584.402 186.58C583.655 186.153 583.088 185.527 582.702 184.7C582.328 183.86 582.142 182.827 582.142 181.6C582.142 180.373 582.328 179.347 582.702 178.52C583.088 177.693 583.648 177.067 584.382 176.64C585.128 176.213 586.055 176 587.162 176C588.162 176 589.022 176.167 589.742 176.5C590.462 176.82 591.015 177.293 591.402 177.92C591.802 178.533 592.002 179.267 592.002 180.12H589.782C589.728 179.36 589.482 178.793 589.042 178.42C588.615 178.033 587.995 177.84 587.182 177.84C586.528 177.84 586.002 177.967 585.602 178.22C585.202 178.473 584.908 178.873 584.722 179.42C584.535 179.967 584.442 180.687 584.442 181.58C584.442 182.487 584.528 183.213 584.702 183.76C584.888 184.307 585.182 184.713 585.582 184.98C585.995 185.233 586.522 185.36 587.162 185.36C587.708 185.36 588.162 185.28 588.522 185.12C588.895 184.947 589.182 184.693 589.382 184.36C589.595 184.013 589.735 183.58 589.802 183.06H592.022C591.995 183.927 591.782 184.673 591.382 185.3C590.982 185.913 590.422 186.387 589.702 186.72C588.995 187.04 588.155 187.2 587.182 187.2ZM594.224 176.2H596.464V179L596.324 178.52C596.417 178.12 596.577 177.74 596.804 177.38C597.03 177.007 597.357 176.693 597.784 176.44C598.224 176.173 598.757 176.04 599.384 176.04H600.404V178.06H599.424C598.81 178.06 598.277 178.187 597.824 178.44C597.384 178.693 597.05 179.047 596.824 179.5C596.597 179.94 596.484 180.453 596.484 181.04V187H594.224V176.2ZM606.58 187.2C605.46 187.2 604.513 186.993 603.74 186.58C602.967 186.153 602.38 185.52 601.98 184.68C601.58 183.84 601.38 182.813 601.38 181.6C601.38 180.387 601.58 179.36 601.98 178.52C602.38 177.68 602.967 177.053 603.74 176.64C604.513 176.213 605.46 176 606.58 176C607.7 176 608.647 176.213 609.42 176.64C610.193 177.053 610.78 177.68 611.18 178.52C611.58 179.36 611.78 180.387 611.78 181.6C611.78 182.813 611.58 183.84 611.18 184.68C610.78 185.52 610.193 186.153 609.42 186.58C608.647 186.993 607.7 187.2 606.58 187.2ZM606.58 185.36C607.247 185.36 607.793 185.227 608.22 184.96C608.647 184.693 608.96 184.287 609.16 183.74C609.373 183.193 609.48 182.48 609.48 181.6C609.48 180.72 609.373 180.007 609.16 179.46C608.96 178.913 608.647 178.507 608.22 178.24C607.793 177.973 607.247 177.84 606.58 177.84C605.9 177.84 605.347 177.973 604.92 178.24C604.507 178.507 604.193 178.913 603.98 179.46C603.78 180.007 603.68 180.72 603.68 181.6C603.68 182.48 603.78 183.193 603.98 183.74C604.193 184.287 604.513 184.693 604.94 184.96C605.367 185.227 605.913 185.36 606.58 185.36ZM618.088 187.2C617.048 187.2 616.182 187.067 615.488 186.8C614.808 186.533 614.295 186.133 613.948 185.6C613.615 185.067 613.442 184.387 613.428 183.56H615.608C615.635 184.013 615.735 184.38 615.908 184.66C616.082 184.927 616.342 185.127 616.688 185.26C617.035 185.393 617.482 185.46 618.028 185.46C618.562 185.46 619.008 185.407 619.368 185.3C619.728 185.193 619.995 185.027 620.168 184.8C620.342 184.573 620.428 184.3 620.428 183.98C620.428 183.74 620.375 183.54 620.268 183.38C620.175 183.207 620.008 183.067 619.768 182.96C619.528 182.84 619.208 182.733 618.808 182.64L616.508 182.14C615.588 181.927 614.902 181.58 614.448 181.1C613.995 180.607 613.768 179.967 613.768 179.18C613.768 178.513 613.935 177.94 614.268 177.46C614.602 176.98 615.088 176.62 615.728 176.38C616.368 176.127 617.142 176 618.048 176C618.955 176 619.728 176.133 620.368 176.4C621.008 176.653 621.495 177.033 621.828 177.54C622.175 178.047 622.348 178.66 622.348 179.38H620.188C620.135 179.007 620.028 178.7 619.868 178.46C619.708 178.22 619.482 178.04 619.188 177.92C618.895 177.8 618.535 177.74 618.108 177.74C617.668 177.74 617.295 177.793 616.988 177.9C616.695 178.007 616.468 178.16 616.308 178.36C616.148 178.56 616.068 178.8 616.068 179.08C616.068 179.307 616.122 179.5 616.228 179.66C616.335 179.82 616.495 179.96 616.708 180.08C616.922 180.187 617.208 180.28 617.568 180.36L620.048 180.92C620.662 181.053 621.162 181.247 621.548 181.5C621.948 181.753 622.242 182.08 622.428 182.48C622.628 182.867 622.728 183.333 622.728 183.88C622.728 184.613 622.555 185.227 622.208 185.72C621.862 186.213 621.342 186.587 620.648 186.84C619.955 187.08 619.102 187.2 618.088 187.2ZM628.967 187.2C627.927 187.2 627.061 187.067 626.367 186.8C625.687 186.533 625.174 186.133 624.827 185.6C624.494 185.067 624.321 184.387 624.307 183.56H626.487C626.514 184.013 626.614 184.38 626.787 184.66C626.961 184.927 627.221 185.127 627.567 185.26C627.914 185.393 628.361 185.46 628.907 185.46C629.441 185.46 629.887 185.407 630.247 185.3C630.607 185.193 630.874 185.027 631.047 184.8C631.221 184.573 631.307 184.3 631.307 183.98C631.307 183.74 631.254 183.54 631.147 183.38C631.054 183.207 630.887 183.067 630.647 182.96C630.407 182.84 630.087 182.733 629.687 182.64L627.387 182.14C626.467 181.927 625.781 181.58 625.327 181.1C624.874 180.607 624.647 179.967 624.647 179.18C624.647 178.513 624.814 177.94 625.147 177.46C625.481 176.98 625.967 176.62 626.607 176.38C627.247 176.127 628.021 176 628.927 176C629.834 176 630.607 176.133 631.247 176.4C631.887 176.653 632.374 177.033 632.707 177.54C633.054 178.047 633.227 178.66 633.227 179.38H631.067C631.014 179.007 630.907 178.7 630.747 178.46C630.587 178.22 630.361 178.04 630.067 177.92C629.774 177.8 629.414 177.74 628.987 177.74C628.547 177.74 628.174 177.793 627.867 177.9C627.574 178.007 627.347 178.16 627.187 178.36C627.027 178.56 626.947 178.8 626.947 179.08C626.947 179.307 627.001 179.5 627.107 179.66C627.214 179.82 627.374 179.96 627.587 180.08C627.801 180.187 628.087 180.28 628.447 180.36L630.927 180.92C631.541 181.053 632.041 181.247 632.427 181.5C632.827 181.753 633.121 182.08 633.307 182.48C633.507 182.867 633.607 183.333 633.607 183.88C633.607 184.613 633.434 185.227 633.087 185.72C632.741 186.213 632.221 186.587 631.527 186.84C630.834 187.08 629.981 187.2 628.967 187.2Z" fill="#30343A"/>
    <rect x="125" y="280" width="88" height="36" rx="18" fill="#F8F3FE"/>
    <path d="M143.57 297L142.07 291.6H142.98L144.07 296.01H144.13L145.25 291.63H146.27L147.43 296.01H147.5L148.56 291.6H149.47L147.97 297H146.95L145.8 292.59H145.74L144.58 297H143.57ZM150.575 297V291.6H151.435V297H150.575ZM150.575 290.6V289.5H151.435V290.6H150.575ZM154.848 297C153.858 297 153.538 296.53 153.538 295.67V292.35H152.538V291.6H153.538V290H154.388V291.6H155.738V292.35H154.388V295.56C154.388 295.99 154.478 296.25 155.088 296.25H155.748V297H154.848ZM156.992 297V289.5H157.852V292.35C158.242 291.74 158.832 291.5 159.552 291.5C160.712 291.5 161.412 292.14 161.412 293.39V297H160.552V293.44C160.552 292.8 160.262 292.25 159.342 292.25C158.272 292.25 157.852 293.01 157.852 293.94V297H156.992ZM166.701 297V296.19C166.401 296.76 165.761 297.1 164.891 297.1C163.451 297.1 162.571 296.14 162.571 294.33C162.571 292.54 163.441 291.5 164.921 291.5C165.721 291.5 166.341 291.8 166.651 292.31V289.5H167.511V297H166.701ZM163.461 294.32C163.461 295.69 163.971 296.34 165.051 296.34C166.131 296.34 166.651 295.67 166.651 294.3C166.651 292.9 166.121 292.26 165.051 292.26C163.971 292.26 163.461 292.92 163.461 294.32ZM169.062 297V291.6H169.922V292.51C170.052 292.17 170.422 291.53 171.402 291.53H171.912V292.33H171.532C170.482 292.33 169.922 293.01 169.922 293.92V297H169.062ZM174.235 297.1C173.045 297.1 172.355 296.54 172.355 295.57C172.355 294.63 172.985 294.03 174.075 293.93L176.035 293.74V293.4C176.035 292.59 175.645 292.25 174.725 292.25C173.855 292.25 173.485 292.55 173.415 293.33H172.565C172.595 292.13 173.345 291.5 174.725 291.5C176.105 291.5 176.885 292.13 176.885 293.23V297H176.085V296.24C175.735 296.79 175.095 297.1 174.235 297.1ZM173.245 295.49C173.245 296.07 173.675 296.36 174.415 296.36C175.445 296.36 176.035 295.79 176.035 294.88V294.4L174.315 294.58C173.605 294.66 173.245 294.96 173.245 295.49ZM179.41 297L177.91 291.6H178.82L179.91 296.01H179.97L181.09 291.63H182.11L183.27 296.01H183.34L184.4 291.6H185.31L183.81 297H182.79L181.64 292.59H181.58L180.42 297H179.41ZM187.751 297.1C186.561 297.1 185.871 296.54 185.871 295.57C185.871 294.63 186.501 294.03 187.591 293.93L189.551 293.74V293.4C189.551 292.59 189.161 292.25 188.241 292.25C187.371 292.25 187.001 292.55 186.931 293.33H186.081C186.111 292.13 186.861 291.5 188.241 291.5C189.621 291.5 190.401 292.13 190.401 293.23V297H189.601V296.24C189.251 296.79 188.611 297.1 187.751 297.1ZM186.761 295.49C186.761 296.07 187.191 296.36 187.931 296.36C188.961 296.36 189.551 295.79 189.551 294.88V294.4L187.831 294.58C187.121 294.66 186.761 294.96 186.761 295.49ZM191.865 297V289.5H192.725V297H191.865ZM131.997 307V299.5H137.097V300.3H132.947V302.81H136.697V303.62H132.947V306.2H137.187V307H131.997ZM140.764 307V300.3H138.294V299.5H144.184V300.3H141.714V307H140.764ZM145.493 307V299.5H146.443V302.77H150.283V299.5H151.233V307H150.283V303.57H146.443V307H145.493ZM157.292 307.1C156.102 307.1 155.412 306.54 155.412 305.57C155.412 304.63 156.042 304.03 157.132 303.93L159.092 303.74V303.4C159.092 302.59 158.702 302.25 157.782 302.25C156.912 302.25 156.542 302.55 156.472 303.33H155.622C155.652 302.13 156.402 301.5 157.782 301.5C159.162 301.5 159.942 302.13 159.942 303.23V307H159.142V306.24C158.792 306.79 158.152 307.1 157.292 307.1ZM156.302 305.49C156.302 306.07 156.732 306.36 157.472 306.36C158.502 306.36 159.092 305.79 159.092 304.88V304.4L157.372 304.58C156.662 304.66 156.302 304.96 156.302 305.49ZM161.376 307V301.6H162.186V302.44C162.576 301.76 163.186 301.5 163.936 301.5C165.096 301.5 165.796 302.14 165.796 303.39V307H164.936V303.44C164.936 302.8 164.646 302.25 163.726 302.25C162.656 302.25 162.236 303.01 162.236 303.94V307H161.376ZM171.086 307V306.19C170.786 306.76 170.146 307.1 169.276 307.1C167.836 307.1 166.956 306.14 166.956 304.33C166.956 302.54 167.826 301.5 169.306 301.5C170.106 301.5 170.726 301.8 171.036 302.31V299.5H171.896V307H171.086ZM167.846 304.32C167.846 305.69 168.356 306.34 169.436 306.34C170.516 306.34 171.036 305.67 171.036 304.3C171.036 302.9 170.506 302.26 169.436 302.26C168.356 302.26 167.846 302.92 167.846 304.32ZM176.21 309V301.6H177.02V302.39C177.32 301.83 177.96 301.5 178.82 301.5C180.26 301.5 181.14 302.46 181.14 304.27C181.14 306.06 180.27 307.1 178.79 307.1C178 307.1 177.38 306.81 177.07 306.31V309H176.21ZM177.06 304.3C177.06 305.7 177.59 306.34 178.66 306.34C179.74 306.34 180.25 305.68 180.25 304.28C180.25 302.91 179.74 302.26 178.66 302.26C177.58 302.26 177.06 302.93 177.06 304.3ZM182.392 307V301.6H183.252V302.51C183.382 302.17 183.752 301.53 184.732 301.53H185.242V302.33H184.862C183.812 302.33 183.252 303.01 183.252 303.92V307H182.392ZM188.246 307.1C186.576 307.1 185.716 306.14 185.716 304.3C185.716 302.46 186.576 301.5 188.246 301.5C189.906 301.5 190.776 302.46 190.776 304.3C190.776 306.14 189.906 307.1 188.246 307.1ZM186.606 304.3C186.606 305.72 187.106 306.34 188.246 306.34C189.386 306.34 189.886 305.72 189.886 304.3C189.886 302.88 189.386 302.26 188.246 302.26C187.106 302.26 186.606 302.88 186.606 304.3ZM192.621 300.84C192.621 299.97 192.951 299.5 193.941 299.5H194.961V300.25H194.071C193.571 300.25 193.481 300.51 193.481 300.95V301.6H194.921V302.35H193.481V307H192.621V302.35H191.601V301.6H192.621V300.84ZM196.021 307V301.6H196.881V307H196.021ZM196.021 300.6V299.5H196.881V300.6H196.021ZM200.288 307C199.298 307 198.978 306.53 198.978 305.67V302.35H197.978V301.6H198.978V300H199.828V301.6H201.178V302.35H199.828V305.56C199.828 305.99 199.918 306.25 200.528 306.25H201.188V307H200.288ZM204.312 307.1C202.812 307.1 202.092 306.52 202.072 305.29H202.932C202.962 306.02 203.382 306.34 204.302 306.34C205.202 306.34 205.652 306.06 205.652 305.52C205.652 305.12 205.412 304.92 204.762 304.77L203.602 304.51C202.712 304.31 202.262 303.82 202.262 303.04C202.262 302.06 202.992 301.5 204.292 301.5C205.582 301.5 206.332 302.09 206.342 303.18H205.482C205.402 302.55 205.032 302.26 204.302 302.26C203.562 302.26 203.152 302.53 203.152 303.01C203.152 303.38 203.392 303.59 203.982 303.73L205.242 304.02C206.122 304.22 206.542 304.7 206.542 305.49C206.542 306.55 205.782 307.1 204.312 307.1Z" fill="#30343A"/>
    <rect x="388" y="345" width="75" height="26" rx="13" fill="#F8F3FE"/>
    <path d="M394.81 362V354.5H395.67V357.3C395.99 356.8 396.61 356.5 397.42 356.5C398.86 356.5 399.74 357.46 399.74 359.27C399.74 361.06 398.87 362.1 397.39 362.1C396.55 362.1 395.91 361.77 395.62 361.22V362H394.81ZM395.66 359.3C395.66 360.7 396.19 361.34 397.26 361.34C398.34 361.34 398.85 360.68 398.85 359.28C398.85 357.91 398.34 357.26 397.26 357.26C396.18 357.26 395.66 357.93 395.66 359.3ZM400.991 362V356.6H401.851V357.51C401.981 357.17 402.351 356.53 403.331 356.53H403.841V357.33H403.461C402.411 357.33 401.851 358.01 401.851 358.92V362H400.991ZM404.937 362V356.6H405.797V362H404.937ZM404.937 355.6V354.5H405.797V355.6H404.937ZM411.18 362V361.19C410.88 361.76 410.24 362.1 409.37 362.1C407.93 362.1 407.05 361.14 407.05 359.33C407.05 357.54 407.92 356.5 409.4 356.5C410.2 356.5 410.82 356.8 411.13 357.31V354.5H411.99V362H411.18ZM407.94 359.32C407.94 360.69 408.45 361.34 409.53 361.34C410.61 361.34 411.13 360.67 411.13 359.3C411.13 357.9 410.6 357.26 409.53 357.26C408.45 357.26 407.94 357.92 407.94 359.32ZM415.79 364.09C414.3 364.09 413.52 363.49 413.51 362.34H414.35C414.38 363.01 414.85 363.33 415.79 363.33C416.77 363.33 417.24 362.98 417.24 362.26V361.06C416.93 361.59 416.31 361.9 415.53 361.9C414.12 361.9 413.27 360.89 413.27 359.21C413.27 357.52 414.14 356.5 415.56 356.5C416.36 356.5 417 356.84 417.28 357.4V356.6H418.09V362.27C418.09 363.46 417.3 364.09 415.79 364.09ZM414.16 359.21C414.16 360.49 414.67 361.14 415.68 361.14C416.7 361.14 417.23 360.47 417.23 359.2C417.23 357.91 416.71 357.26 415.69 357.26C414.67 357.26 414.16 357.91 414.16 359.21ZM419.614 362V356.6H420.474V362H419.614ZM419.614 355.6V354.5H420.474V355.6H419.614ZM421.997 362V356.6H422.807V357.44C423.197 356.76 423.807 356.5 424.557 356.5C425.717 356.5 426.417 357.14 426.417 358.39V362H425.557V358.44C425.557 357.8 425.267 357.25 424.347 357.25C423.277 357.25 422.857 358.01 422.857 358.94V362H421.997ZM430.097 364.09C428.607 364.09 427.827 363.49 427.817 362.34H428.657C428.687 363.01 429.157 363.33 430.097 363.33C431.077 363.33 431.547 362.98 431.547 362.26V361.06C431.237 361.59 430.617 361.9 429.837 361.9C428.427 361.9 427.577 360.89 427.577 359.21C427.577 357.52 428.447 356.5 429.867 356.5C430.667 356.5 431.307 356.84 431.587 357.4V356.6H432.397V362.27C432.397 363.46 431.607 364.09 430.097 364.09ZM428.467 359.21C428.467 360.49 428.977 361.14 429.987 361.14C431.007 361.14 431.537 360.47 431.537 359.2C431.537 357.91 431.017 357.26 429.997 357.26C428.977 357.26 428.467 357.91 428.467 359.21ZM437.285 355.84C437.285 354.97 437.615 354.5 438.605 354.5H439.625V355.25H438.735C438.235 355.25 438.145 355.51 438.145 355.95V356.6H439.585V357.35H438.145V362H437.285V357.35H436.265V356.6H437.285V355.84ZM442.849 362.1C441.219 362.1 440.419 361.15 440.419 359.3C440.419 357.45 441.209 356.5 442.849 356.5C444.429 356.5 445.279 357.34 445.279 358.99V359.47H441.279C441.319 360.78 441.759 361.34 442.849 361.34C443.659 361.34 444.169 361.04 444.349 360.38H445.199C445.099 361.45 444.199 362.1 442.849 362.1ZM441.299 358.79H444.449C444.399 357.73 443.879 357.25 442.859 357.25C441.859 357.25 441.399 357.71 441.299 358.79ZM448.689 362.1C447.059 362.1 446.259 361.15 446.259 359.3C446.259 357.45 447.049 356.5 448.689 356.5C450.269 356.5 451.119 357.34 451.119 358.99V359.47H447.119C447.159 360.78 447.599 361.34 448.689 361.34C449.499 361.34 450.009 361.04 450.189 360.38H451.039C450.939 361.45 450.039 362.1 448.689 362.1ZM447.139 358.79H450.289C450.239 357.73 449.719 357.25 448.699 357.25C447.699 357.25 447.239 357.71 447.139 358.79ZM454.278 362.1C452.778 362.1 452.058 361.52 452.038 360.29H452.898C452.928 361.02 453.348 361.34 454.268 361.34C455.168 361.34 455.618 361.06 455.618 360.52C455.618 360.12 455.378 359.92 454.728 359.77L453.568 359.51C452.678 359.31 452.228 358.82 452.228 358.04C452.228 357.06 452.958 356.5 454.258 356.5C455.548 356.5 456.298 357.09 456.308 358.18H455.448C455.368 357.55 454.998 357.26 454.268 357.26C453.528 357.26 453.118 357.53 453.118 358.01C453.118 358.38 453.358 358.59 453.948 358.73L455.208 359.02C456.088 359.22 456.508 359.7 456.508 360.49C456.508 361.55 455.748 362.1 454.278 362.1Z" fill="#30343A"/>
    <defs>
        <clipPath id="clip0_10575_47481">
            <rect y="120" width="163" height="120" rx="24" fill="white"/>
        </clipPath>
        <clipPath id="clip1_10575_47481">
            <rect x="168" y="120" width="163" height="120" rx="24" fill="white"/>
        </clipPath>
        <clipPath id="clip2_10575_47481">
            <rect width="20" height="20" fill="white" transform="translate(380.5 170)"/>
        </clipPath>
        <clipPath id="clip3_10575_47481">
            <rect width="20" height="20" fill="white" transform="translate(538.5 170)"/>
        </clipPath>
    </defs>
</svg>
